<?xml version="1.0" encoding="UTF-8"?>
<!DOCTYPE svg PUBLIC "-//W3C//DTD SVG 1.1//EN" "http://www.w3.org/Graphics/SVG/1.1/DTD/svg11.dtd">
<svg xmlns="http://www.w3.org/2000/svg" version="1.1" width="611px" height="82px" style="shape-rendering:geometricPrecision; text-rendering:geometricPrecision; image-rendering:optimizeQuality; fill-rule:evenodd; clip-rule:evenodd" xmlns:xlink="http://www.w3.org/1999/xlink">
<g><path style="opacity:1" fill="#fefffe" d="M 107.5,5.5 C 129.799,1.23145 145.632,9.23145 155,29.5C 159.946,52.782 151.113,67.9486 128.5,75C 111.937,78.4896 97.7708,74.3229 86,62.5C 75.7069,45.9646 76.8735,30.1312 89.5,15C 94.8765,10.4803 100.877,7.3136 107.5,5.5 Z M 114.5,22.5 C 120.054,21.1021 123.554,23.1021 125,28.5C 127,36.5 127,44.5 125,52.5C 123.542,58.0589 120.042,59.8923 114.5,58C 111.819,55.806 110.319,52.9727 110,49.5C 109.333,43.5 109.333,37.5 110,31.5C 110.472,27.8895 111.972,24.8895 114.5,22.5 Z"/></g>
<g><path style="opacity:1" fill="#fefffe" d="M 304.5,5.5 C 326.799,1.23145 342.632,9.23145 352,29.5C 356.946,52.782 348.113,67.9486 325.5,75C 308.937,78.4896 294.771,74.3229 283,62.5C 272.707,45.9646 273.874,30.1312 286.5,15C 291.877,10.4803 297.877,7.3136 304.5,5.5 Z M 311.5,22.5 C 317.054,21.1021 320.554,23.1021 322,28.5C 324,36.5 324,44.5 322,52.5C 320.542,58.0589 317.042,59.8923 311.5,58C 308.819,55.806 307.319,52.9727 307,49.5C 306.333,43.5 306.333,37.5 307,31.5C 307.472,27.8895 308.972,24.8895 311.5,22.5 Z"/></g>
<g><path style="opacity:1" fill="#fefffe" d="M 457.5,5.5 C 478.248,1.45112 493.748,8.45112 504,26.5C 510.736,47.1875 504.569,62.6875 485.5,73C 474.927,75.9001 464.26,76.2335 453.5,74C 430.296,63.4082 423.796,46.2416 434,22.5C 439.732,13.7361 447.566,8.0694 457.5,5.5 Z M 464.5,22.5 C 469.439,21.3519 472.939,23.0186 475,27.5C 477,36.1667 477,44.8333 475,53.5C 471.468,59.2904 467.135,59.957 462,55.5C 459.103,46.2703 458.77,36.937 461,27.5C 461.997,25.6769 463.164,24.0103 464.5,22.5 Z"/></g>
<g><path style="opacity:1" fill="#fefffe" d="M 7.5,6.5 C 20.1711,6.33345 32.8377,6.50012 45.5,7C 46,7.5 46.5,8 47,8.5C 47.6667,12.5 47.6667,16.5 47,20.5C 45.2111,22.229 43.0444,22.8957 40.5,22.5C 40.5,34.5 40.5,46.5 40.5,58.5C 45.8333,58.5 51.1667,58.5 56.5,58.5C 56.3354,55.4816 56.502,52.4816 57,49.5C 57.5,49 58,48.5 58.5,48C 62.8333,47.3333 67.1667,47.3333 71.5,48C 72,48.5 72.5,49 73,49.5C 73.4997,57.8267 73.6664,66.16 73.5,74.5C 51.5,74.5 29.5,74.5 7.5,74.5C 7.5,68.8333 7.5,63.1667 7.5,57.5C 9.5,57.5 11.5,57.5 13.5,57.5C 13.5,45.8333 13.5,34.1667 13.5,22.5C 11.5,22.5 9.5,22.5 7.5,22.5C 7.5,17.1667 7.5,11.8333 7.5,6.5 Z"/></g>
<g><path style="opacity:1" fill="#fefffe" d="M 165.5,6.5 C 179.516,6.16742 193.516,6.50075 207.5,7.5C 210.578,15.241 213.744,22.9077 217,30.5C 219.761,22.4818 222.927,14.6485 226.5,7C 240.496,6.50009 254.496,6.33343 268.5,6.5C 268.5,11.8333 268.5,17.1667 268.5,22.5C 266.5,22.5 264.5,22.5 262.5,22.5C 262.5,34.1667 262.5,45.8333 262.5,57.5C 264.5,57.5 266.5,57.5 268.5,57.5C 268.5,63.1667 268.5,68.8333 268.5,74.5C 256.167,74.5 243.833,74.5 231.5,74.5C 231.5,68.8333 231.5,63.1667 231.5,57.5C 233.5,57.5 235.5,57.5 237.5,57.5C 237.667,46.1618 237.5,34.8284 237,23.5C 230.527,40.4207 224.361,57.4207 218.5,74.5C 214.233,74.797 210.066,74.4637 206,73.5C 200,57.5 194,41.5 188,25.5C 187.5,36.1615 187.333,46.8281 187.5,57.5C 189.167,57.5 190.833,57.5 192.5,57.5C 192.5,63.1667 192.5,68.8333 192.5,74.5C 183.5,74.5 174.5,74.5 165.5,74.5C 165.5,68.8333 165.5,63.1667 165.5,57.5C 167.167,57.5 168.833,57.5 170.5,57.5C 170.5,45.8333 170.5,34.1667 170.5,22.5C 168.833,22.5 167.167,22.5 165.5,22.5C 165.5,17.1667 165.5,11.8333 165.5,6.5 Z"/></g>
<g><path style="opacity:1" fill="#fefffe" d="M 356.5,6.5 C 379.167,6.5 401.833,6.5 424.5,6.5C 424.5,16.1667 424.5,25.8333 424.5,35.5C 420.167,35.5 415.833,35.5 411.5,35.5C 411.5,31.1667 411.5,26.8333 411.5,22.5C 409.167,22.5 406.833,22.5 404.5,22.5C 404.5,34.1667 404.5,45.8333 404.5,57.5C 406.5,57.5 408.5,57.5 410.5,57.5C 410.5,63.1667 410.5,68.8333 410.5,74.5C 397.5,74.5 384.5,74.5 371.5,74.5C 371.5,68.8333 371.5,63.1667 371.5,57.5C 373.5,57.5 375.5,57.5 377.5,57.5C 377.5,45.8333 377.5,34.1667 377.5,22.5C 375.167,22.5 372.833,22.5 370.5,22.5C 370.5,26.8333 370.5,31.1667 370.5,35.5C 365.833,35.5 361.167,35.5 356.5,35.5C 356.5,25.8333 356.5,16.1667 356.5,6.5 Z"/></g>
<g><path style="opacity:1" fill="#fefffe" d="M 515.5,6.5 C 534.503,6.33338 553.503,6.50005 572.5,7C 589.244,10.5741 594.744,20.4074 589,36.5C 587.173,39.1603 585.006,41.4936 582.5,43.5C 585,47.8333 587.5,52.1667 590,56.5C 591.699,57.4061 593.533,57.7394 595.5,57.5C 595.5,63.1667 595.5,68.8333 595.5,74.5C 586.808,74.8314 578.141,74.498 569.5,73.5C 564.745,64.9905 560.245,56.3238 556,47.5C 553.619,46.565 551.119,46.2317 548.5,46.5C 548.5,50.1667 548.5,53.8333 548.5,57.5C 550.167,57.5 551.833,57.5 553.5,57.5C 553.5,63.1667 553.5,68.8333 553.5,74.5C 540.833,74.5 528.167,74.5 515.5,74.5C 515.5,68.8333 515.5,63.1667 515.5,57.5C 517.167,57.5 518.833,57.5 520.5,57.5C 520.5,45.8333 520.5,34.1667 520.5,22.5C 518.833,22.5 517.167,22.5 515.5,22.5C 515.5,17.1667 515.5,11.8333 515.5,6.5 Z M 548.5,21.5 C 551.85,21.335 555.183,21.5017 558.5,22C 564.528,25.3488 564.861,29.0154 559.5,33C 555.809,33.4196 552.142,33.9196 548.5,34.5C 548.5,30.1667 548.5,25.8333 548.5,21.5 Z"/></g>
</svg>
