<?xml version="1.0" encoding="UTF-8"?>
<!DOCTYPE svg PUBLIC "-//W3C//DTD SVG 1.1//EN" "http://www.w3.org/Graphics/SVG/1.1/DTD/svg11.dtd">
<svg xmlns="http://www.w3.org/2000/svg" version="1.1" width="521px" height="518px" style="shape-rendering:geometricPrecision; text-rendering:geometricPrecision; image-rendering:optimizeQuality; fill-rule:evenodd; clip-rule:evenodd" xmlns:xlink="http://www.w3.org/1999/xlink">
<g><path style="opacity:1" fill="#fefffe" d="M 237.5,6.5 C 312.926,1.92146 378.592,24.7548 434.5,75C 497.778,139.856 521.944,217.356 507,307.5C 484.804,401.173 428.637,464.34 338.5,497C 257.65,520.243 182.65,508.577 113.5,462C 40.1781,405.815 5.6781,330.982 10,237.5C 15.6149,178.028 38.4482,126.695 78.5,83.5C 79.325,82.6143 80.325,82.281 81.5,82.5C 81.5,81.5 81.5,80.5 81.5,79.5C 84.868,78.1224 87.5347,75.7891 89.5,72.5C 129.391,36.8175 176.225,15.1508 230,7.5C 231.956,7.66073 233.956,7.99406 236,8.5C 236.717,7.9558 237.217,7.28913 237.5,6.5 Z M 239.5,19.5 C 252.714,19.8735 265.547,19.8735 278,19.5C 279.439,21.0139 280.939,21.3473 282.5,20.5C 310.787,23.9034 337.453,31.4034 362.5,43C 368.668,47.6049 374.835,51.4382 381,54.5C 381.333,54.1667 381.667,53.8333 382,53.5C 390.335,60.5227 399.501,66.8561 409.5,72.5C 410.41,75.4106 412.41,77.4106 415.5,78.5C 422.806,85.8063 430.14,93.1396 437.5,100.5C 444.103,109.653 450.937,118.653 458,127.5C 463.12,137.576 468.62,147.409 474.5,157C 474.167,157.333 473.833,157.667 473.5,158C 477.578,167.653 481.578,176.986 485.5,186C 485.167,186.333 484.833,186.667 484.5,187C 486.633,194.132 488.966,201.466 491.5,209C 492.097,211.897 492.097,214.564 491.5,217C 492.845,219.324 493.178,221.658 492.5,224C 493.167,225.333 493.833,226.667 494.5,228C 494.335,229.117 494.002,230.284 493.5,231.5C 494.115,234.039 494.782,236.539 495.5,239C 495.471,248.672 495.471,258.672 495.5,269C 490.438,341.216 458.605,400.716 400,447.5C 398.442,446.655 397.442,447.321 397,449.5C 396.667,449.167 396.333,448.833 396,448.5C 371.489,467.424 344.156,480.091 314,486.5C 305.004,488.872 295.337,490.872 285,492.5C 283.602,491.949 282.268,491.616 281,491.5C 278.478,492.631 275.811,493.297 273,493.5C 191.143,496.248 123.643,465.748 70.5,402C 70.8333,401.667 71.1667,401.333 71.5,401C 66.9894,395.744 62.6561,390.41 58.5,385C 58.8333,384.667 59.1667,384.333 59.5,384C 50.1414,370.9 42.8081,356.566 37.5,341C 31.8312,328.229 28.1645,315.062 26.5,301.5C 25.9346,298.492 24.9346,295.659 23.5,293C 23.3985,289.029 23.3985,285.029 23.5,281C 22.8333,279 22.1667,277 21.5,275C 21.6685,262.688 21.6685,249.854 21.5,236.5C 28.4614,172.107 56.7947,117.94 106.5,74C 108.757,72.5502 111.09,71.3835 113.5,70.5C 113.281,69.325 113.614,68.325 114.5,67.5C 137.013,51.3659 160.846,39.0325 186,30.5C 190.339,29.7765 194.839,28.4431 199.5,26.5C 200.086,26.7093 200.586,27.0426 201,27.5C 210.381,24.3995 219.715,22.0662 229,20.5C 231.333,20.8333 233.667,21.1667 236,21.5C 237.302,20.9152 238.469,20.2485 239.5,19.5 Z M 115.5,96.5 C 170.5,96.5 225.5,96.5 280.5,96.5C 280.5,117.167 280.5,137.833 280.5,158.5C 272.316,158.174 264.316,158.508 256.5,159.5C 254.973,159.427 253.973,160.094 253.5,161.5C 252.662,161.842 252.328,162.508 252.5,163.5C 251.335,218.332 251.168,273.332 252,328.5C 252.383,329.056 252.883,329.389 253.5,329.5C 253.973,330.906 254.973,331.573 256.5,331.5C 281.663,332.663 306.997,332.83 332.5,332C 333.416,331.722 334.082,331.222 334.5,330.5C 335.906,330.027 336.573,329.027 336.5,327.5C 337.496,313.343 337.829,299.01 337.5,284.5C 358.167,284.5 378.833,284.5 399.5,284.5C 399.5,321.167 399.5,357.833 399.5,394.5C 304.833,394.5 210.167,394.5 115.5,394.5C 115.5,373.833 115.5,353.167 115.5,332.5C 123.019,332.825 130.352,332.492 137.5,331.5C 139.752,331.084 141.252,329.751 142,327.5C 142.832,272.665 142.665,217.998 141.5,163.5C 141.167,161.167 139.833,159.833 137.5,159.5C 130.352,158.508 123.019,158.175 115.5,158.5C 115.5,137.833 115.5,117.167 115.5,96.5 Z"/></g>
<g><path style="opacity:1" fill="#bcbcbc" d="M 284.5,90.5 C 225.856,89.5156 167.189,89.1823 108.5,89.5C 107.502,114.995 107.169,140.661 107.5,166.5C 106.502,140.672 106.169,114.672 106.5,88.5C 164.834,88.3333 223.168,88.5 281.5,89C 282.737,89.2321 283.737,89.7321 284.5,90.5 Z"/></g>
<g><path style="opacity:1" fill="#eaeaea" d="M 108.5,89.5 C 108.5,114.833 108.5,140.167 108.5,165.5C 117.349,165.174 126.016,165.507 134.5,166.5C 125.5,166.5 116.5,166.5 107.5,166.5C 107.169,140.661 107.502,114.995 108.5,89.5 Z"/></g>
<g><path style="opacity:1" fill="#fafafa" d="M 108.5,89.5 C 167.189,89.1823 225.856,89.5156 284.5,90.5C 286.61,91.4525 287.777,93.1192 288,95.5C 288.667,116.833 288.667,138.167 288,159.5C 287.901,161.653 287.067,163.319 285.5,164.5C 283.219,164.077 281.552,164.744 280.5,166.5C 273.167,166.5 265.833,166.5 258.5,166.5C 258.5,219.5 258.5,272.5 258.5,325.5C 261.059,325.802 263.393,325.468 265.5,324.5C 266.333,275.335 266.833,226.002 267,176.5C 267.257,174.093 268.424,172.427 270.5,171.5C 278.833,171.5 287.167,171.5 295.5,171.5C 295.5,148.5 295.5,125.5 295.5,102.5C 297.167,102.5 298.833,102.5 300.5,102.5C 300.5,126.833 300.5,151.167 300.5,175.5C 300.5,176.167 300.167,176.5 299.5,176.5C 290.528,177.347 281.528,177.68 272.5,177.5C 272.5,226.5 272.5,275.5 272.5,324.5C 291.326,325.497 310.326,325.83 329.5,325.5C 329.5,311.5 329.5,297.5 329.5,283.5C 329.238,282.022 329.571,280.689 330.5,279.5C 332.453,278.239 334.453,277.073 336.5,276C 358.174,275.167 379.841,275.334 401.5,276.5C 402.357,277.425 403.357,278.092 404.5,278.5C 404.427,280.027 405.094,281.027 406.5,281.5C 406.5,283.833 406.5,286.167 406.5,288.5C 411.113,288.404 415.447,289.404 419.5,291.5C 420.222,291.918 420.722,292.584 421,293.5C 421.667,331.5 421.667,369.5 421,407.5C 420.634,409.452 419.801,411.118 418.5,412.5C 319.518,413.489 220.518,413.822 121.5,413.5C 121.5,411.5 121.5,409.5 121.5,407.5C 218.833,407.5 316.167,407.5 413.5,407.5C 414.498,370.004 414.832,332.337 414.5,294.5C 411.833,294.5 409.167,294.5 406.5,294.5C 406.807,329.524 406.473,364.524 405.5,399.5C 404.22,400.931 402.553,401.598 400.5,401.5C 303.167,401.5 205.833,401.5 108.5,401.5C 108.5,376.167 108.5,350.833 108.5,325.5C 117.349,325.826 126.016,325.493 134.5,324.5C 135.833,271.833 135.833,219.167 134.5,166.5C 126.016,165.507 117.349,165.174 108.5,165.5C 108.5,140.167 108.5,114.833 108.5,89.5 Z M 115.5,96.5 C 170.5,96.5 225.5,96.5 280.5,96.5C 280.5,117.167 280.5,137.833 280.5,158.5C 272.316,158.174 264.316,158.508 256.5,159.5C 254.973,159.427 253.973,160.094 253.5,161.5C 252.662,161.842 252.328,162.508 252.5,163.5C 251.335,218.332 251.168,273.332 252,328.5C 252.383,329.056 252.883,329.389 253.5,329.5C 253.973,330.906 254.973,331.573 256.5,331.5C 281.663,332.663 306.997,332.83 332.5,332C 333.416,331.722 334.082,331.222 334.5,330.5C 335.906,330.027 336.573,329.027 336.5,327.5C 337.496,313.343 337.829,299.01 337.5,284.5C 358.167,284.5 378.833,284.5 399.5,284.5C 399.5,321.167 399.5,357.833 399.5,394.5C 304.833,394.5 210.167,394.5 115.5,394.5C 115.5,373.833 115.5,353.167 115.5,332.5C 123.019,332.825 130.352,332.492 137.5,331.5C 139.752,331.084 141.252,329.751 142,327.5C 142.832,272.665 142.665,217.998 141.5,163.5C 141.167,161.167 139.833,159.833 137.5,159.5C 130.352,158.508 123.019,158.175 115.5,158.5C 115.5,137.833 115.5,117.167 115.5,96.5 Z"/></g>
<g><path style="opacity:1" fill="#bbbbbb" d="M 280.5,159.5 C 272.5,159.5 264.5,159.5 256.5,159.5C 264.316,158.508 272.316,158.174 280.5,158.5C 280.5,137.833 280.5,117.167 280.5,96.5C 225.5,96.5 170.5,96.5 115.5,96.5C 114.503,117.327 114.169,138.327 114.5,159.5C 113.503,138.34 113.169,117.007 113.5,95.5C 169.5,95.5 225.5,95.5 281.5,95.5C 281.831,117.007 281.497,138.34 280.5,159.5 Z"/></g>
<g><path style="opacity:1" fill="#adadad" d="M 295.5,101.5 C 295.5,101.833 295.5,102.167 295.5,102.5C 295.5,125.5 295.5,148.5 295.5,171.5C 287.167,171.5 278.833,171.5 270.5,171.5C 277.982,170.508 285.648,170.175 293.5,170.5C 292.844,147.142 293.51,124.142 295.5,101.5 Z"/></g>
<g><path style="opacity:1" fill="#cfcfcf" d="M 295.5,102.5 C 295.5,102.167 295.5,101.833 295.5,101.5C 297.833,101.5 300.167,101.5 302.5,101.5C 302.667,124.836 302.5,148.169 302,171.5C 301.79,173.058 301.29,174.391 300.5,175.5C 300.5,151.167 300.5,126.833 300.5,102.5C 298.833,102.5 297.167,102.5 295.5,102.5 Z"/></g>
<g><path style="opacity:1" fill="#767676" d="M 115.5,96.5 C 115.5,117.167 115.5,137.833 115.5,158.5C 123.019,158.175 130.352,158.508 137.5,159.5C 129.833,159.5 122.167,159.5 114.5,159.5C 114.169,138.327 114.503,117.327 115.5,96.5 Z"/></g>
<g><path style="opacity:1" fill="#dcdcdc" d="M 256.5,159.5 C 264.5,159.5 272.5,159.5 280.5,159.5C 271.652,160.28 262.652,160.947 253.5,161.5C 253.973,160.094 254.973,159.427 256.5,159.5 Z"/></g>
<g><path style="opacity:1" fill="#ababab" d="M 137.5,159.5 C 139.833,159.833 141.167,161.167 141.5,163.5C 139.659,162.598 138.326,161.264 137.5,159.5 Z"/></g>
<g><path style="opacity:1" fill="#ababab" d="M 285.5,164.5 C 284.22,165.931 282.553,166.598 280.5,166.5C 281.552,164.744 283.219,164.077 285.5,164.5 Z"/></g>
<g><path style="opacity:1" fill="#bebebe" d="M 252.5,163.5 C 252.175,218.875 252.508,274.208 253.5,329.5C 252.883,329.389 252.383,329.056 252,328.5C 251.168,273.332 251.335,218.332 252.5,163.5 Z"/></g>
<g><path style="opacity:1" fill="#b1b1b1" d="M 107.5,166.5 C 116.5,166.5 125.5,166.5 134.5,166.5C 135.833,219.167 135.833,271.833 134.5,324.5C 134.5,272.167 134.5,219.833 134.5,167.5C 125.318,167.827 116.318,167.493 107.5,166.5 Z"/></g>
<g><path style="opacity:1" fill="#adadad" d="M 280.5,166.5 C 273.687,167.491 266.687,167.825 259.5,167.5C 259.5,219.833 259.5,272.167 259.5,324.5C 261.5,324.5 263.5,324.5 265.5,324.5C 263.393,325.468 261.059,325.802 258.5,325.5C 258.5,272.5 258.5,219.5 258.5,166.5C 265.833,166.5 273.167,166.5 280.5,166.5 Z"/></g>
<g><path style="opacity:1" fill="#cfcfcf" d="M 270.5,171.5 C 268.424,172.427 267.257,174.093 267,176.5C 266.833,226.002 266.333,275.335 265.5,324.5C 265.333,274.499 265.5,224.499 266,174.5C 266.589,172.137 268.089,171.137 270.5,171.5 Z"/></g>
<g><path style="opacity:1" fill="#a8a8a8" d="M 299.5,176.5 C 298.391,177.29 297.058,177.79 295.5,178C 288.174,178.5 280.841,178.666 273.5,178.5C 273.5,227.167 273.5,275.833 273.5,324.5C 273.167,324.5 272.833,324.5 272.5,324.5C 272.5,275.5 272.5,226.5 272.5,177.5C 281.528,177.68 290.528,177.347 299.5,176.5 Z"/></g>
<g><path style="opacity:1" fill="#a1a1a1" d="M 404.5,278.5 C 405.906,278.973 406.573,279.973 406.5,281.5C 405.094,281.027 404.427,280.027 404.5,278.5 Z"/></g>
<g><path style="opacity:0.957" fill="#757575" d="M 399.5,283.5 C 399.5,283.833 399.5,284.167 399.5,284.5C 378.833,284.5 358.167,284.5 337.5,284.5C 337.829,299.01 337.496,313.343 336.5,327.5C 336.5,312.833 336.5,298.167 336.5,283.5C 357.5,283.5 378.5,283.5 399.5,283.5 Z"/></g>
<g><path style="opacity:1" fill="#c3c3c3" d="M 406.5,281.5 C 407.461,283.265 407.795,285.265 407.5,287.5C 410.187,287.336 412.854,287.503 415.5,288C 417.324,288.66 418.657,289.827 419.5,291.5C 415.447,289.404 411.113,288.404 406.5,288.5C 406.5,286.167 406.5,283.833 406.5,281.5 Z"/></g>
<g><path style="opacity:1" fill="#bbbbbb" d="M 413.5,407.5 C 413.5,407.167 413.5,406.833 413.5,406.5C 413.5,369.5 413.5,332.5 413.5,295.5C 411.5,295.5 409.5,295.5 407.5,295.5C 407.667,329.168 407.5,362.835 407,396.5C 406.768,397.737 406.268,398.737 405.5,399.5C 406.473,364.524 406.807,329.524 406.5,294.5C 409.167,294.5 411.833,294.5 414.5,294.5C 414.832,332.337 414.498,370.004 413.5,407.5 Z"/></g>
<g><path style="opacity:1" fill="#b2b2b2" d="M 329.5,283.5 C 329.5,297.5 329.5,311.5 329.5,325.5C 310.326,325.83 291.326,325.497 272.5,324.5C 272.833,324.5 273.167,324.5 273.5,324.5C 291.833,324.5 310.167,324.5 328.5,324.5C 328.171,310.656 328.504,296.99 329.5,283.5 Z"/></g>
<g><path style="opacity:1" fill="#adadad" d="M 134.5,324.5 C 126.016,325.493 117.349,325.826 108.5,325.5C 107.502,350.995 107.169,376.661 107.5,402.5C 106.502,376.672 106.169,350.672 106.5,324.5C 115.833,324.5 125.167,324.5 134.5,324.5 Z"/></g>
<g><path style="opacity:1" fill="#adadad" d="M 334.5,330.5 C 334.082,331.222 333.416,331.722 332.5,332C 306.997,332.83 281.663,332.663 256.5,331.5C 282.532,331.806 308.532,331.473 334.5,330.5 Z"/></g>
<g><path style="opacity:1" fill="#c6c6c6" d="M 137.5,331.5 C 130.352,332.492 123.019,332.825 115.5,332.5C 114.503,353.327 114.169,374.327 114.5,395.5C 113.503,374.34 113.169,353.007 113.5,331.5C 121.5,331.5 129.5,331.5 137.5,331.5 Z"/></g>
<g><path style="opacity:0.792" fill="#6f6f6f" d="M 115.5,332.5 C 115.5,353.167 115.5,373.833 115.5,394.5C 210.167,394.5 304.833,394.5 399.5,394.5C 304.668,395.499 209.668,395.833 114.5,395.5C 114.169,374.327 114.503,353.327 115.5,332.5 Z"/></g>
<g><path style="opacity:1" fill="#d1d1d1" d="M 399.5,283.5 C 400.498,320.996 400.832,358.663 400.5,396.5C 304.999,396.833 209.665,396.499 114.5,395.5C 209.668,395.833 304.668,395.499 399.5,394.5C 399.5,357.833 399.5,321.167 399.5,284.5C 399.5,284.167 399.5,283.833 399.5,283.5 Z"/></g>
<g><path style="opacity:1" fill="#cacaca" d="M 108.5,325.5 C 108.5,350.833 108.5,376.167 108.5,401.5C 205.833,401.5 303.167,401.5 400.5,401.5C 400.389,402.117 400.056,402.617 399.5,403C 301.999,403.832 204.666,403.666 107.5,402.5C 107.169,376.661 107.502,350.995 108.5,325.5 Z"/></g>
<g><path style="opacity:1" fill="#9d9d9d" d="M 413.5,406.5 C 413.5,406.833 413.5,407.167 413.5,407.5C 316.167,407.5 218.833,407.5 121.5,407.5C 121.5,409.5 121.5,411.5 121.5,413.5C 121.5,413.833 121.5,414.167 121.5,414.5C 120.527,412.052 120.194,409.385 120.5,406.5C 218.167,406.5 315.833,406.5 413.5,406.5 Z"/></g>
<g><path style="opacity:1" fill="#c3c3c3" d="M 418.5,412.5 C 417.391,413.29 416.058,413.79 414.5,414C 316.834,414.5 219.167,414.667 121.5,414.5C 121.5,414.167 121.5,413.833 121.5,413.5C 220.518,413.822 319.518,413.489 418.5,412.5 Z"/></g>
</svg>
