<?xml version="1.0" encoding="UTF-8"?>
<svg version="1.1" xmlns="http://www.w3.org/2000/svg" width="720" height="720">
<path d="M0 0 C237.6 0 475.2 0 720 0 C720 237.6 720 475.2 720 720 C482.4 720 244.8 720 0 720 C0 482.4 0 244.8 0 0 Z " fill="#000000" transform="translate(0,0)"/>
<path d="M0 0 C0.92923279 -0.0033284 1.85846558 -0.0066568 2.81585693 -0.01008606 C4.78608711 -0.0151438 6.75632584 -0.01749474 8.7265625 -0.01733398 C11.68244425 -0.01949331 14.63793559 -0.03758522 17.59375 -0.05664062 C29.05720438 -0.09040082 40.13643805 0.49903845 51.484375 2.16796875 C52.57959473 2.32354248 53.67481445 2.47911621 54.80322266 2.6394043 C62.5078684 3.77268241 70.02605455 5.66682112 77.54541016 7.65771484 C79.29634723 8.11848776 81.05222344 8.56039145 82.80859375 9 C101.99874704 14.06953386 120.34977271 22.22989942 137.484375 32.16796875 C140.13607408 33.53399555 142.8068758 34.85270599 145.484375 36.16796875 C145.484375 36.82796875 145.484375 37.48796875 145.484375 38.16796875 C146.350625 38.35359375 146.350625 38.35359375 147.234375 38.54296875 C149.50773267 39.17445699 151.4097279 40.05655066 153.484375 41.16796875 C153.484375 41.82796875 153.484375 42.48796875 153.484375 43.16796875 C155.134375 43.82796875 156.784375 44.48796875 158.484375 45.16796875 C158.484375 45.82796875 158.484375 46.48796875 158.484375 47.16796875 C159.06703125 47.28269531 159.6496875 47.39742187 160.25 47.515625 C162.64960635 48.21620937 164.21298433 49.1498947 166.234375 50.60546875 C166.84796875 51.03730469 167.4615625 51.46914062 168.09375 51.9140625 C168.55265625 52.32785156 169.0115625 52.74164063 169.484375 53.16796875 C169.484375 53.82796875 169.484375 54.48796875 169.484375 55.16796875 C170.804375 55.49796875 172.124375 55.82796875 173.484375 56.16796875 C173.484375 56.82796875 173.484375 57.48796875 173.484375 58.16796875 C174.35255859 58.56048828 174.35255859 58.56048828 175.23828125 58.9609375 C181.00528022 62.0600726 186.08094774 67.35172018 190.484375 72.16796875 C190.484375 72.82796875 190.484375 73.48796875 190.484375 74.16796875 C191.0721875 74.42964844 191.66 74.69132812 192.265625 74.9609375 C197.58230859 77.85328825 202.00859685 83.30187934 205.484375 88.16796875 C205.484375 88.82796875 205.484375 89.48796875 205.484375 90.16796875 C206.474375 90.49796875 207.464375 90.82796875 208.484375 91.16796875 C209.171875 93.23046875 209.171875 93.23046875 209.484375 95.16796875 C210.144375 95.16796875 210.804375 95.16796875 211.484375 95.16796875 C212.51049449 96.81868271 213.50745643 98.48766881 214.484375 100.16796875 C215.47756788 101.17472984 216.47813688 102.17424603 217.484375 103.16796875 C218.40800776 104.31275301 219.30439515 105.48006842 220.171875 106.66796875 C220.60886719 107.25578125 221.04585937 107.84359375 221.49609375 108.44921875 C222.484375 110.16796875 222.484375 110.16796875 222.484375 113.16796875 C223.144375 113.16796875 223.804375 113.16796875 224.484375 113.16796875 C225.144375 115.14796875 225.804375 117.12796875 226.484375 119.16796875 C227.144375 119.16796875 227.804375 119.16796875 228.484375 119.16796875 C229.04705078 120.328125 229.04705078 120.328125 229.62109375 121.51171875 C233.10432886 128.61792814 233.10432886 128.61792814 237.234375 135.35546875 C239.86385458 139.37155493 240.75539565 143.46768401 241.484375 148.16796875 C242.144375 148.16796875 242.804375 148.16796875 243.484375 148.16796875 C256.83962281 182.59604609 264.71700761 215.16229079 264.796875 252.23046875 C264.80055084 253.04650574 264.80422668 253.86254272 264.80801392 254.70330811 C264.86150875 277.41772998 261.44229432 299.34088034 255.06396484 321.1081543 C254.46974955 323.21994639 253.94150782 325.34044766 253.42578125 327.47265625 C252.45984951 331.26423892 251.04683739 334.58732577 249.484375 338.16796875 C249.0203125 339.86953125 249.0203125 339.86953125 248.546875 341.60546875 C247.49773354 345.12317834 246.12131267 348.05952952 244.38671875 351.2734375 C243.45896146 353.22132618 242.93699781 355.06350599 242.484375 357.16796875 C241.824375 357.16796875 241.164375 357.16796875 240.484375 357.16796875 C240.26007813 358.2971875 240.03578125 359.42640625 239.8046875 360.58984375 C238.51652063 365.7199514 236.06944528 369.91371459 233.359375 374.41796875 C232.62557617 375.66151123 232.62557617 375.66151123 231.87695312 376.93017578 C228.47313785 382.65103263 224.91436694 388.23793809 221.140625 393.72265625 C219.4237675 396.18644813 219.4237675 396.18644813 217.890625 398.98828125 C217.19453125 400.06722656 217.19453125 400.06722656 216.484375 401.16796875 C215.824375 401.16796875 215.164375 401.16796875 214.484375 401.16796875 C213.824375 402.81796875 213.164375 404.46796875 212.484375 406.16796875 C211.824375 406.16796875 211.164375 406.16796875 210.484375 406.16796875 C209.824375 407.81796875 209.164375 409.46796875 208.484375 411.16796875 C207.824375 411.16796875 207.164375 411.16796875 206.484375 411.16796875 C206.21625 411.97234375 205.948125 412.77671875 205.671875 413.60546875 C205.28 414.45109375 204.888125 415.29671875 204.484375 416.16796875 C203.494375 416.49796875 202.504375 416.82796875 201.484375 417.16796875 C201.154375 418.15796875 200.824375 419.14796875 200.484375 420.16796875 C199.824375 420.16796875 199.164375 420.16796875 198.484375 420.16796875 C198.1440625 420.97234375 198.1440625 420.97234375 197.796875 421.79296875 C194.69096497 427.4131869 190.41513932 431.16172274 185.484375 435.16796875 C184.123125 436.56015625 184.123125 436.56015625 182.734375 437.98046875 C180.484375 440.16796875 180.484375 440.16796875 178.484375 440.16796875 C178.484375 440.82796875 178.484375 441.48796875 178.484375 442.16796875 C177.824375 442.16796875 177.164375 442.16796875 176.484375 442.16796875 C176.484375 442.82796875 176.484375 443.48796875 176.484375 444.16796875 C175.88625 444.43609375 175.288125 444.70421875 174.671875 444.98046875 C172.44109592 446.05736665 172.44109592 446.05736665 170.859375 447.79296875 C170.405625 448.24671875 169.951875 448.70046875 169.484375 449.16796875 C168.824375 449.16796875 168.164375 449.16796875 167.484375 449.16796875 C167.484375 449.82796875 167.484375 450.48796875 167.484375 451.16796875 C165.75911458 452.11197917 164.03385417 453.05598958 162.30859375 454 C160.41402641 455.21300992 159.06664166 456.5775879 157.484375 458.16796875 C156.15607384 459.10172501 154.80032919 459.99747763 153.421875 460.85546875 C152.72964844 461.29246094 152.03742188 461.72945313 151.32421875 462.1796875 C149.484375 463.16796875 149.484375 463.16796875 147.484375 463.16796875 C147.484375 463.82796875 147.484375 464.48796875 147.484375 465.16796875 C146.329375 465.72484375 145.174375 466.28171875 143.984375 466.85546875 C140.96373795 468.34977683 138.16558277 469.99188676 135.359375 471.85546875 C132.10255604 473.95373551 129.4055306 474.87388208 125.484375 475.16796875 C125.484375 475.82796875 125.484375 476.48796875 125.484375 477.16796875 C123.54969558 478.00782959 121.61152371 478.83964902 119.671875 479.66796875 C118.05345703 480.3640625 118.05345703 480.3640625 116.40234375 481.07421875 C113.484375 482.16796875 113.484375 482.16796875 110.484375 482.16796875 C110.484375 482.82796875 110.484375 483.48796875 110.484375 484.16796875 C109.494375 484.49410156 108.504375 484.82023437 107.484375 485.15625 C106.15101431 485.59757361 104.81768253 486.03898457 103.484375 486.48046875 C102.83597656 486.69380859 102.18757813 486.90714844 101.51953125 487.12695312 C98.21850368 488.22184841 94.96125025 489.36644938 91.7265625 490.64453125 C86.47871514 492.63264326 81.05391782 493.90161966 75.609375 495.23046875 C74.58457031 495.48634766 73.55976563 495.74222656 72.50390625 496.00585938 C69.50200888 496.74775142 66.49539565 497.46410044 63.484375 498.16796875 C62.71963867 498.35214355 61.95490234 498.53631836 61.16699219 498.72607422 C45.59526909 502.18533217 29.43525518 502.64087139 13.546875 502.66796875 C12.13195267 502.671987 12.13195267 502.671987 10.68844604 502.67608643 C-18.2042531 502.65850866 -47.38225746 498.08244578 -74.23120117 487.09448242 C-76.94420904 485.99414419 -79.68233513 484.97645559 -82.43359375 483.9765625 C-87.92587187 481.84353892 -93.1947889 479.3862538 -98.453125 476.73046875 C-99.36118896 476.27305298 -99.36118896 476.27305298 -100.28759766 475.80639648 C-102.03092195 474.92820678 -103.7732974 474.04813424 -105.515625 473.16796875 C-107.14015179 472.35452302 -108.76504588 471.54180949 -110.390625 470.73046875 C-111.421875 470.21484375 -112.453125 469.69921875 -113.515625 469.16796875 C-113.515625 468.50796875 -113.515625 467.84796875 -113.515625 467.16796875 C-114.03125 467.08546875 -114.546875 467.00296875 -115.078125 466.91796875 C-118.56018232 465.8465665 -121.38763385 464.0327327 -124.515625 462.16796875 C-124.515625 461.50796875 -124.515625 460.84796875 -124.515625 460.16796875 C-126.495625 459.50796875 -128.475625 458.84796875 -130.515625 458.16796875 C-130.515625 457.50796875 -130.515625 456.84796875 -130.515625 456.16796875 C-131.051875 456.08546875 -131.588125 456.00296875 -132.140625 455.91796875 C-136.44871705 454.55751863 -139.69999896 451.98767292 -142.859375 448.8125 C-145.47740434 446.20602079 -148.19448071 443.91158206 -151.078125 441.60546875 C-157.68548555 436.31774747 -157.68548555 436.31774747 -160.515625 433.16796875 C-160.515625 432.50796875 -160.515625 431.84796875 -160.515625 431.16796875 C-161.27875 430.89984375 -162.041875 430.63171875 -162.828125 430.35546875 C-165.40551118 429.2166237 -166.78517364 428.35380204 -168.515625 426.16796875 C-168.515625 425.50796875 -168.515625 424.84796875 -168.515625 424.16796875 C-169.175625 424.16796875 -169.835625 424.16796875 -170.515625 424.16796875 C-170.598125 423.54921875 -170.680625 422.93046875 -170.765625 422.29296875 C-171.28822799 420.02842967 -171.28822799 420.02842967 -173.265625 419.29296875 C-178.41021175 416.72067537 -181.41966588 410.81190742 -184.515625 406.16796875 C-185.093125 405.59046875 -185.670625 405.01296875 -186.265625 404.41796875 C-186.678125 404.00546875 -187.090625 403.59296875 -187.515625 403.16796875 C-187.515625 402.50796875 -187.515625 401.84796875 -187.515625 401.16796875 C-188.175625 401.16796875 -188.835625 401.16796875 -189.515625 401.16796875 C-190.55859375 399.76953125 -190.55859375 399.76953125 -191.703125 397.79296875 C-193.71319398 394.42893638 -195.8576764 391.22847842 -198.140625 388.04296875 C-200.62858677 384.51701863 -202.67859801 381.08163495 -204.515625 377.16796875 C-206.10192297 374.32413923 -207.69932811 371.48714795 -209.30859375 368.65625 C-210.515625 366.16796875 -210.515625 366.16796875 -210.515625 363.16796875 C-211.175625 363.16796875 -211.835625 363.16796875 -212.515625 363.16796875 C-213.35302281 361.04456715 -214.18542783 358.91919595 -215.015625 356.79296875 C-215.71171875 355.01792969 -215.71171875 355.01792969 -216.421875 353.20703125 C-217.515625 350.16796875 -217.515625 350.16796875 -217.515625 348.16796875 C-218.175625 348.16796875 -218.835625 348.16796875 -219.515625 348.16796875 C-243.14388961 281.49424442 -245.3810119 211.42383157 -215.578125 146.10546875 C-215.14822266 145.15091797 -214.71832031 144.19636719 -214.27539062 143.21289062 C-211.91967219 138.03316983 -209.43559114 133.05264528 -206.515625 128.16796875 C-205.855625 128.16796875 -205.195625 128.16796875 -204.515625 128.16796875 C-204.42152344 127.47316406 -204.32742187 126.77835937 -204.23046875 126.0625 C-203.36899617 122.57424219 -201.89587613 119.95055852 -200.078125 116.85546875 C-199.46066406 115.78683594 -198.84320313 114.71820313 -198.20703125 113.6171875 C-197.64886719 112.80894531 -197.09070313 112.00070313 -196.515625 111.16796875 C-195.855625 111.16796875 -195.195625 111.16796875 -194.515625 111.16796875 C-194.515625 110.17796875 -194.515625 109.18796875 -194.515625 108.16796875 C-193.855625 108.16796875 -193.195625 108.16796875 -192.515625 108.16796875 C-192.515625 107.17796875 -192.515625 106.18796875 -192.515625 105.16796875 C-191.855625 105.16796875 -191.195625 105.16796875 -190.515625 105.16796875 C-190.020625 103.68296875 -190.020625 103.68296875 -189.515625 102.16796875 C-188.855625 102.16796875 -188.195625 102.16796875 -187.515625 102.16796875 C-187.4125 101.40484375 -187.309375 100.64171875 -187.203125 99.85546875 C-186.43105883 96.83739191 -185.72221484 96.245669 -183.515625 94.16796875 C-182.35936859 92.88562405 -181.2140601 91.59334879 -180.078125 90.29296875 C-179.46710938 89.59429687 -178.85609375 88.895625 -178.2265625 88.17578125 C-176.83773338 86.54596809 -175.51040143 84.86389493 -174.203125 83.16796875 C-173.3678125 82.17796875 -173.3678125 82.17796875 -172.515625 81.16796875 C-171.855625 81.16796875 -171.195625 81.16796875 -170.515625 81.16796875 C-169.855625 79.51796875 -169.195625 77.86796875 -168.515625 76.16796875 C-167.525625 76.16796875 -166.535625 76.16796875 -165.515625 76.16796875 C-165.515625 75.17796875 -165.515625 74.18796875 -165.515625 73.16796875 C-164.525625 73.16796875 -163.535625 73.16796875 -162.515625 73.16796875 C-162.020625 71.68296875 -162.020625 71.68296875 -161.515625 70.16796875 C-160.855625 70.16796875 -160.195625 70.16796875 -159.515625 70.16796875 C-159.433125 69.57242188 -159.350625 68.976875 -159.265625 68.36328125 C-158.29034167 65.50854567 -156.98313537 64.72616333 -154.515625 63.04296875 C-151.49278606 61.06723499 -151.49278606 61.06723499 -149.515625 58.16796875 C-148.525625 58.16796875 -147.535625 58.16796875 -146.515625 58.16796875 C-146.185625 57.17796875 -145.855625 56.18796875 -145.515625 55.16796875 C-144.525625 55.16796875 -143.535625 55.16796875 -142.515625 55.16796875 C-142.515625 54.50796875 -142.515625 53.84796875 -142.515625 53.16796875 C-141.195625 52.83796875 -139.875625 52.50796875 -138.515625 52.16796875 C-138.515625 51.50796875 -138.515625 50.84796875 -138.515625 50.16796875 C-137.855625 50.16796875 -137.195625 50.16796875 -136.515625 50.16796875 C-136.185625 49.17796875 -135.855625 48.18796875 -135.515625 47.16796875 C-133.19867229 45.7421517 -130.90961678 44.44341469 -128.515625 43.16796875 C-127.5875 42.59046875 -126.659375 42.01296875 -125.703125 41.41796875 C-123.515625 40.16796875 -123.515625 40.16796875 -121.515625 40.16796875 C-121.515625 39.50796875 -121.515625 38.84796875 -121.515625 38.16796875 C-120.91234375 37.84183594 -120.3090625 37.51570313 -119.6875 37.1796875 C-118.88828125 36.74269531 -118.0890625 36.30570313 -117.265625 35.85546875 C-116.47671875 35.42621094 -115.6878125 34.99695312 -114.875 34.5546875 C-112.50573985 33.22215192 -112.50573985 33.22215192 -110.43359375 31.6015625 C-106.32725494 28.53226242 -101.54791467 26.93043688 -96.515625 26.16796875 C-96.515625 25.50796875 -96.515625 24.84796875 -96.515625 24.16796875 C-88.08302489 20.05183997 -79.42109162 16.92319788 -70.56103516 13.88964844 C-68.52226996 13.17031328 -66.51093932 12.396805 -64.49609375 11.61328125 C-60.56466593 10.12771241 -56.60210129 9.1257219 -52.515625 8.16796875 C-50.92269155 7.76362674 -49.3302675 7.35727413 -47.73828125 6.94921875 C-37.84314743 4.47161773 -28.14350692 2.49427428 -17.984375 1.52734375 C-14.71874526 1.26678776 -14.71874526 1.26678776 -12.39355469 0.65600586 C-8.26084209 -0.04481637 -4.18473108 0.00527206 0 0 Z " fill="#000000" transform="translate(348.515625,19.83203125)"/>
<path d="M0 0 C54.45 0 108.9 0 165 0 C165 20.46 165 40.92 165 62 C151.635 62.495 151.635 62.495 138 63 C137.04471464 66.82114143 136.87424602 69.76472857 136.87301636 73.68017578 C136.87145637 74.3504738 136.86989638 75.02077183 136.86828911 75.71138191 C136.86430245 77.95604784 136.86745972 80.20064607 136.87060547 82.4453125 C136.86925039 84.05515584 136.86746986 85.66499887 136.86529541 87.27484131 C136.86073373 91.64664214 136.86250546 96.01841939 136.8656745 100.39022064 C136.86820461 104.96343551 136.86585874 109.53664834 136.86428833 114.10986328 C136.86246854 121.79004275 136.86486795 129.47021261 136.86962891 137.15039062 C136.87507116 146.03223249 136.87330837 154.9140514 136.8678025 163.79589272 C136.86326595 171.41890472 136.86262349 179.0419098 136.86524117 186.66492271 C136.86680095 191.21902213 136.86700586 195.77311075 136.86370468 200.32720947 C136.86081812 204.60845261 136.86281617 208.88966613 136.86859894 213.17090607 C136.86992231 214.74308472 136.86953957 216.31526587 136.86733627 217.88744354 C136.8646082 220.03160421 136.86802625 222.17566964 136.87301636 224.31982422 C136.87339338 225.52033417 136.87377041 226.72084412 136.87415886 227.95773315 C136.97941731 230.50240417 137.24832497 232.58259368 138 235 C148.2485039 235.0231502 158.49700161 235.04092879 168.74552631 235.05181217 C173.504107 235.05703512 178.26266983 235.06412215 183.02124023 235.07543945 C187.61182519 235.08628916 192.20239294 235.09228128 196.79298973 235.09487724 C198.54610655 235.09672772 200.29922241 235.10034114 202.05233192 235.10573006 C204.5040657 235.11296809 206.955728 235.11398977 209.4074707 235.11352539 C210.13539322 235.11712067 210.86331573 235.12071594 211.61329651 235.12442017 C214.69010181 235.11809644 217.05625338 234.98124887 220 234 C220.91187611 231.26437166 221.14730259 229.53854525 221.20532227 226.7121582 C221.22550415 225.83950317 221.24568604 224.96684814 221.26647949 224.06774902 C221.28295532 223.15464966 221.29943115 222.24155029 221.31640625 221.30078125 C221.34438293 220.03735901 221.34438293 220.03735901 221.3729248 218.74841309 C221.44120341 215.60321504 221.50136432 212.457845 221.5625 209.3125 C221.706875 202.279375 221.85125 195.24625 222 188 C242.46 188 262.92 188 284 188 C284 224.3 284 260.6 284 298 C190.28 298 96.56 298 0 298 C0 277.87 0 257.74 0 237 C7.26 237 14.52 237 22 237 C22 236.34 22 235.68 22 235 C23.98 234.01 23.98 234.01 26 233 C26 177.23 26 121.46 26 64 C17.56725957 61.89181489 8.68330415 62.39469564 0 62 C0 41.54 0 21.08 0 0 Z " fill="#000000" transform="translate(217,110)"/>
<path d="M0 0 C0.92923279 -0.0033284 1.85846558 -0.0066568 2.81585693 -0.01008606 C4.78608711 -0.0151438 6.75632584 -0.01749474 8.7265625 -0.01733398 C11.68244425 -0.01949331 14.63793559 -0.03758522 17.59375 -0.05664062 C29.05720438 -0.09040082 40.13643805 0.49903845 51.484375 2.16796875 C52.57959473 2.32354248 53.67481445 2.47911621 54.80322266 2.6394043 C62.5078684 3.77268241 70.02605455 5.66682112 77.54541016 7.65771484 C79.29634723 8.11848776 81.05222344 8.56039145 82.80859375 9 C101.99874704 14.06953386 120.34977271 22.22989942 137.484375 32.16796875 C140.13607408 33.53399555 142.8068758 34.85270599 145.484375 36.16796875 C145.484375 36.82796875 145.484375 37.48796875 145.484375 38.16796875 C146.350625 38.35359375 146.350625 38.35359375 147.234375 38.54296875 C149.50773267 39.17445699 151.4097279 40.05655066 153.484375 41.16796875 C153.484375 41.82796875 153.484375 42.48796875 153.484375 43.16796875 C155.134375 43.82796875 156.784375 44.48796875 158.484375 45.16796875 C158.484375 45.82796875 158.484375 46.48796875 158.484375 47.16796875 C159.06703125 47.28269531 159.6496875 47.39742187 160.25 47.515625 C162.64960635 48.21620937 164.21298433 49.1498947 166.234375 50.60546875 C166.84796875 51.03730469 167.4615625 51.46914062 168.09375 51.9140625 C168.55265625 52.32785156 169.0115625 52.74164063 169.484375 53.16796875 C169.484375 53.82796875 169.484375 54.48796875 169.484375 55.16796875 C170.804375 55.49796875 172.124375 55.82796875 173.484375 56.16796875 C173.484375 56.82796875 173.484375 57.48796875 173.484375 58.16796875 C174.35255859 58.56048828 174.35255859 58.56048828 175.23828125 58.9609375 C181.00528022 62.0600726 186.08094774 67.35172018 190.484375 72.16796875 C190.484375 72.82796875 190.484375 73.48796875 190.484375 74.16796875 C191.0721875 74.42964844 191.66 74.69132812 192.265625 74.9609375 C197.58230859 77.85328825 202.00859685 83.30187934 205.484375 88.16796875 C205.484375 88.82796875 205.484375 89.48796875 205.484375 90.16796875 C206.474375 90.49796875 207.464375 90.82796875 208.484375 91.16796875 C209.171875 93.23046875 209.171875 93.23046875 209.484375 95.16796875 C210.144375 95.16796875 210.804375 95.16796875 211.484375 95.16796875 C212.51049449 96.81868271 213.50745643 98.48766881 214.484375 100.16796875 C215.47756788 101.17472984 216.47813688 102.17424603 217.484375 103.16796875 C218.40800776 104.31275301 219.30439515 105.48006842 220.171875 106.66796875 C220.60886719 107.25578125 221.04585937 107.84359375 221.49609375 108.44921875 C222.484375 110.16796875 222.484375 110.16796875 222.484375 113.16796875 C223.144375 113.16796875 223.804375 113.16796875 224.484375 113.16796875 C225.144375 115.14796875 225.804375 117.12796875 226.484375 119.16796875 C227.144375 119.16796875 227.804375 119.16796875 228.484375 119.16796875 C229.04705078 120.328125 229.04705078 120.328125 229.62109375 121.51171875 C233.10432886 128.61792814 233.10432886 128.61792814 237.234375 135.35546875 C239.86385458 139.37155493 240.75539565 143.46768401 241.484375 148.16796875 C242.144375 148.16796875 242.804375 148.16796875 243.484375 148.16796875 C256.83962281 182.59604609 264.71700761 215.16229079 264.796875 252.23046875 C264.80055084 253.04650574 264.80422668 253.86254272 264.80801392 254.70330811 C264.86150875 277.41772998 261.44229432 299.34088034 255.06396484 321.1081543 C254.46974955 323.21994639 253.94150782 325.34044766 253.42578125 327.47265625 C252.45984951 331.26423892 251.04683739 334.58732577 249.484375 338.16796875 C249.0203125 339.86953125 249.0203125 339.86953125 248.546875 341.60546875 C247.49773354 345.12317834 246.12131267 348.05952952 244.38671875 351.2734375 C243.45896146 353.22132618 242.93699781 355.06350599 242.484375 357.16796875 C241.824375 357.16796875 241.164375 357.16796875 240.484375 357.16796875 C240.26007813 358.2971875 240.03578125 359.42640625 239.8046875 360.58984375 C238.51652063 365.7199514 236.06944528 369.91371459 233.359375 374.41796875 C232.62557617 375.66151123 232.62557617 375.66151123 231.87695312 376.93017578 C228.47313785 382.65103263 224.91436694 388.23793809 221.140625 393.72265625 C219.4237675 396.18644813 219.4237675 396.18644813 217.890625 398.98828125 C217.19453125 400.06722656 217.19453125 400.06722656 216.484375 401.16796875 C215.824375 401.16796875 215.164375 401.16796875 214.484375 401.16796875 C213.824375 402.81796875 213.164375 404.46796875 212.484375 406.16796875 C211.824375 406.16796875 211.164375 406.16796875 210.484375 406.16796875 C209.824375 407.81796875 209.164375 409.46796875 208.484375 411.16796875 C207.824375 411.16796875 207.164375 411.16796875 206.484375 411.16796875 C206.21625 411.97234375 205.948125 412.77671875 205.671875 413.60546875 C205.28 414.45109375 204.888125 415.29671875 204.484375 416.16796875 C203.494375 416.49796875 202.504375 416.82796875 201.484375 417.16796875 C201.154375 418.15796875 200.824375 419.14796875 200.484375 420.16796875 C199.824375 420.16796875 199.164375 420.16796875 198.484375 420.16796875 C198.1440625 420.97234375 198.1440625 420.97234375 197.796875 421.79296875 C194.69096497 427.4131869 190.41513932 431.16172274 185.484375 435.16796875 C184.123125 436.56015625 184.123125 436.56015625 182.734375 437.98046875 C180.484375 440.16796875 180.484375 440.16796875 178.484375 440.16796875 C178.484375 440.82796875 178.484375 441.48796875 178.484375 442.16796875 C177.824375 442.16796875 177.164375 442.16796875 176.484375 442.16796875 C176.484375 442.82796875 176.484375 443.48796875 176.484375 444.16796875 C175.88625 444.43609375 175.288125 444.70421875 174.671875 444.98046875 C172.44109592 446.05736665 172.44109592 446.05736665 170.859375 447.79296875 C170.405625 448.24671875 169.951875 448.70046875 169.484375 449.16796875 C168.824375 449.16796875 168.164375 449.16796875 167.484375 449.16796875 C167.484375 449.82796875 167.484375 450.48796875 167.484375 451.16796875 C165.75911458 452.11197917 164.03385417 453.05598958 162.30859375 454 C160.41402641 455.21300992 159.06664166 456.5775879 157.484375 458.16796875 C156.15607384 459.10172501 154.80032919 459.99747763 153.421875 460.85546875 C152.72964844 461.29246094 152.03742188 461.72945313 151.32421875 462.1796875 C149.484375 463.16796875 149.484375 463.16796875 147.484375 463.16796875 C147.484375 463.82796875 147.484375 464.48796875 147.484375 465.16796875 C146.329375 465.72484375 145.174375 466.28171875 143.984375 466.85546875 C140.96373795 468.34977683 138.16558277 469.99188676 135.359375 471.85546875 C132.10255604 473.95373551 129.4055306 474.87388208 125.484375 475.16796875 C125.484375 475.82796875 125.484375 476.48796875 125.484375 477.16796875 C123.54969558 478.00782959 121.61152371 478.83964902 119.671875 479.66796875 C118.05345703 480.3640625 118.05345703 480.3640625 116.40234375 481.07421875 C113.484375 482.16796875 113.484375 482.16796875 110.484375 482.16796875 C110.484375 482.82796875 110.484375 483.48796875 110.484375 484.16796875 C109.494375 484.49410156 108.504375 484.82023437 107.484375 485.15625 C106.15101431 485.59757361 104.81768253 486.03898457 103.484375 486.48046875 C102.83597656 486.69380859 102.18757813 486.90714844 101.51953125 487.12695312 C98.21850368 488.22184841 94.96125025 489.36644938 91.7265625 490.64453125 C86.47871514 492.63264326 81.05391782 493.90161966 75.609375 495.23046875 C74.58457031 495.48634766 73.55976563 495.74222656 72.50390625 496.00585938 C69.50200888 496.74775142 66.49539565 497.46410044 63.484375 498.16796875 C62.71963867 498.35214355 61.95490234 498.53631836 61.16699219 498.72607422 C45.59526909 502.18533217 29.43525518 502.64087139 13.546875 502.66796875 C12.13195267 502.671987 12.13195267 502.671987 10.68844604 502.67608643 C-18.2042531 502.65850866 -47.38225746 498.08244578 -74.23120117 487.09448242 C-76.94420904 485.99414419 -79.68233513 484.97645559 -82.43359375 483.9765625 C-87.92587187 481.84353892 -93.1947889 479.3862538 -98.453125 476.73046875 C-99.36118896 476.27305298 -99.36118896 476.27305298 -100.28759766 475.80639648 C-102.03092195 474.92820678 -103.7732974 474.04813424 -105.515625 473.16796875 C-107.14015179 472.35452302 -108.76504588 471.54180949 -110.390625 470.73046875 C-111.421875 470.21484375 -112.453125 469.69921875 -113.515625 469.16796875 C-113.515625 468.50796875 -113.515625 467.84796875 -113.515625 467.16796875 C-114.03125 467.08546875 -114.546875 467.00296875 -115.078125 466.91796875 C-118.56018232 465.8465665 -121.38763385 464.0327327 -124.515625 462.16796875 C-124.515625 461.50796875 -124.515625 460.84796875 -124.515625 460.16796875 C-126.495625 459.50796875 -128.475625 458.84796875 -130.515625 458.16796875 C-130.515625 457.50796875 -130.515625 456.84796875 -130.515625 456.16796875 C-131.051875 456.08546875 -131.588125 456.00296875 -132.140625 455.91796875 C-136.44871705 454.55751863 -139.69999896 451.98767292 -142.859375 448.8125 C-145.47740434 446.20602079 -148.19448071 443.91158206 -151.078125 441.60546875 C-157.68548555 436.31774747 -157.68548555 436.31774747 -160.515625 433.16796875 C-160.515625 432.50796875 -160.515625 431.84796875 -160.515625 431.16796875 C-161.27875 430.89984375 -162.041875 430.63171875 -162.828125 430.35546875 C-165.40551118 429.2166237 -166.78517364 428.35380204 -168.515625 426.16796875 C-168.515625 425.50796875 -168.515625 424.84796875 -168.515625 424.16796875 C-169.175625 424.16796875 -169.835625 424.16796875 -170.515625 424.16796875 C-170.598125 423.54921875 -170.680625 422.93046875 -170.765625 422.29296875 C-171.28822799 420.02842967 -171.28822799 420.02842967 -173.265625 419.29296875 C-178.41021175 416.72067537 -181.41966588 410.81190742 -184.515625 406.16796875 C-185.093125 405.59046875 -185.670625 405.01296875 -186.265625 404.41796875 C-186.678125 404.00546875 -187.090625 403.59296875 -187.515625 403.16796875 C-187.515625 402.50796875 -187.515625 401.84796875 -187.515625 401.16796875 C-188.175625 401.16796875 -188.835625 401.16796875 -189.515625 401.16796875 C-190.55859375 399.76953125 -190.55859375 399.76953125 -191.703125 397.79296875 C-193.71319398 394.42893638 -195.8576764 391.22847842 -198.140625 388.04296875 C-200.62858677 384.51701863 -202.67859801 381.08163495 -204.515625 377.16796875 C-206.10192297 374.32413923 -207.69932811 371.48714795 -209.30859375 368.65625 C-210.515625 366.16796875 -210.515625 366.16796875 -210.515625 363.16796875 C-211.175625 363.16796875 -211.835625 363.16796875 -212.515625 363.16796875 C-213.35302281 361.04456715 -214.18542783 358.91919595 -215.015625 356.79296875 C-215.71171875 355.01792969 -215.71171875 355.01792969 -216.421875 353.20703125 C-217.515625 350.16796875 -217.515625 350.16796875 -217.515625 348.16796875 C-218.175625 348.16796875 -218.835625 348.16796875 -219.515625 348.16796875 C-243.14388961 281.49424442 -245.3810119 211.42383157 -215.578125 146.10546875 C-215.14822266 145.15091797 -214.71832031 144.19636719 -214.27539062 143.21289062 C-211.91967219 138.03316983 -209.43559114 133.05264528 -206.515625 128.16796875 C-205.855625 128.16796875 -205.195625 128.16796875 -204.515625 128.16796875 C-204.42152344 127.47316406 -204.32742187 126.77835937 -204.23046875 126.0625 C-203.36899617 122.57424219 -201.89587613 119.95055852 -200.078125 116.85546875 C-199.46066406 115.78683594 -198.84320313 114.71820313 -198.20703125 113.6171875 C-197.64886719 112.80894531 -197.09070313 112.00070313 -196.515625 111.16796875 C-195.855625 111.16796875 -195.195625 111.16796875 -194.515625 111.16796875 C-194.515625 110.17796875 -194.515625 109.18796875 -194.515625 108.16796875 C-193.855625 108.16796875 -193.195625 108.16796875 -192.515625 108.16796875 C-192.515625 107.17796875 -192.515625 106.18796875 -192.515625 105.16796875 C-191.855625 105.16796875 -191.195625 105.16796875 -190.515625 105.16796875 C-190.020625 103.68296875 -190.020625 103.68296875 -189.515625 102.16796875 C-188.855625 102.16796875 -188.195625 102.16796875 -187.515625 102.16796875 C-187.4125 101.40484375 -187.309375 100.64171875 -187.203125 99.85546875 C-186.43105883 96.83739191 -185.72221484 96.245669 -183.515625 94.16796875 C-182.35936859 92.88562405 -181.2140601 91.59334879 -180.078125 90.29296875 C-179.46710938 89.59429687 -178.85609375 88.895625 -178.2265625 88.17578125 C-176.83773338 86.54596809 -175.51040143 84.86389493 -174.203125 83.16796875 C-173.3678125 82.17796875 -173.3678125 82.17796875 -172.515625 81.16796875 C-171.855625 81.16796875 -171.195625 81.16796875 -170.515625 81.16796875 C-169.855625 79.51796875 -169.195625 77.86796875 -168.515625 76.16796875 C-167.525625 76.16796875 -166.535625 76.16796875 -165.515625 76.16796875 C-165.515625 75.17796875 -165.515625 74.18796875 -165.515625 73.16796875 C-164.525625 73.16796875 -163.535625 73.16796875 -162.515625 73.16796875 C-162.020625 71.68296875 -162.020625 71.68296875 -161.515625 70.16796875 C-160.855625 70.16796875 -160.195625 70.16796875 -159.515625 70.16796875 C-159.433125 69.57242188 -159.350625 68.976875 -159.265625 68.36328125 C-158.29034167 65.50854567 -156.98313537 64.72616333 -154.515625 63.04296875 C-151.49278606 61.06723499 -151.49278606 61.06723499 -149.515625 58.16796875 C-148.525625 58.16796875 -147.535625 58.16796875 -146.515625 58.16796875 C-146.185625 57.17796875 -145.855625 56.18796875 -145.515625 55.16796875 C-144.525625 55.16796875 -143.535625 55.16796875 -142.515625 55.16796875 C-142.515625 54.50796875 -142.515625 53.84796875 -142.515625 53.16796875 C-141.195625 52.83796875 -139.875625 52.50796875 -138.515625 52.16796875 C-138.515625 51.50796875 -138.515625 50.84796875 -138.515625 50.16796875 C-137.855625 50.16796875 -137.195625 50.16796875 -136.515625 50.16796875 C-136.185625 49.17796875 -135.855625 48.18796875 -135.515625 47.16796875 C-133.19867229 45.7421517 -130.90961678 44.44341469 -128.515625 43.16796875 C-127.5875 42.59046875 -126.659375 42.01296875 -125.703125 41.41796875 C-123.515625 40.16796875 -123.515625 40.16796875 -121.515625 40.16796875 C-121.515625 39.50796875 -121.515625 38.84796875 -121.515625 38.16796875 C-120.91234375 37.84183594 -120.3090625 37.51570313 -119.6875 37.1796875 C-118.88828125 36.74269531 -118.0890625 36.30570313 -117.265625 35.85546875 C-116.47671875 35.42621094 -115.6878125 34.99695312 -114.875 34.5546875 C-112.50573985 33.22215192 -112.50573985 33.22215192 -110.43359375 31.6015625 C-106.32725494 28.53226242 -101.54791467 26.93043688 -96.515625 26.16796875 C-96.515625 25.50796875 -96.515625 24.84796875 -96.515625 24.16796875 C-88.08302489 20.05183997 -79.42109162 16.92319788 -70.56103516 13.88964844 C-68.52226996 13.17031328 -66.51093932 12.396805 -64.49609375 11.61328125 C-60.56466593 10.12771241 -56.60210129 9.1257219 -52.515625 8.16796875 C-50.92269155 7.76362674 -49.3302675 7.35727413 -47.73828125 6.94921875 C-37.84314743 4.47161773 -28.14350692 2.49427428 -17.984375 1.52734375 C-14.71874526 1.26678776 -14.71874526 1.26678776 -12.39355469 0.65600586 C-8.26084209 -0.04481637 -4.18473108 0.00527206 0 0 Z M-14.515625 14.16796875 C-15.93161621 14.28094677 -17.34829198 14.38579956 -18.765625 14.48046875 C-35.10657613 16.07228134 -52.11978675 20.56230457 -67.515625 26.16796875 C-68.48628906 26.51472656 -69.45695313 26.86148438 -70.45703125 27.21875 C-78.79527634 30.29918471 -86.61792647 34.10629522 -94.515625 38.16796875 C-96.34981584 39.08359994 -98.18739334 39.99217908 -100.02514648 40.90063477 C-105.94869901 43.83233205 -111.78352932 46.87732123 -117.515625 50.16796875 C-117.515625 50.82796875 -117.515625 51.48796875 -117.515625 52.16796875 C-118.835625 52.49796875 -120.155625 52.82796875 -121.515625 53.16796875 C-121.515625 53.82796875 -121.515625 54.48796875 -121.515625 55.16796875 C-122.08796875 55.28398438 -122.6603125 55.4 -123.25 55.51953125 C-125.71392426 56.22472337 -127.58167065 57.20832998 -129.765625 58.54296875 C-130.82523438 59.17332031 -130.82523438 59.17332031 -131.90625 59.81640625 C-132.43734375 60.26242188 -132.9684375 60.7084375 -133.515625 61.16796875 C-133.515625 62.15796875 -133.515625 63.14796875 -133.515625 64.16796875 C-134.505625 64.16796875 -135.495625 64.16796875 -136.515625 64.16796875 C-136.515625 64.82796875 -136.515625 65.48796875 -136.515625 66.16796875 C-138.165625 66.82796875 -139.815625 67.48796875 -141.515625 68.16796875 C-141.515625 68.82796875 -141.515625 69.48796875 -141.515625 70.16796875 C-142.175625 70.16796875 -142.835625 70.16796875 -143.515625 70.16796875 C-144.8721414 71.47770873 -146.20120138 72.81599017 -147.515625 74.16796875 C-148.423125 74.86921875 -149.330625 75.57046875 -150.265625 76.29296875 C-151.008125 76.91171875 -151.750625 77.53046875 -152.515625 78.16796875 C-152.515625 78.82796875 -152.515625 79.48796875 -152.515625 80.16796875 C-154.000625 80.66296875 -154.000625 80.66296875 -155.515625 81.16796875 C-159.30256758 84.63933278 -162.61247231 88.51087594 -165.96484375 92.3984375 C-167.10255822 93.69663563 -168.2950283 94.94737205 -169.515625 96.16796875 C-170.48684248 97.44997583 -171.44376124 98.74287084 -172.390625 100.04296875 C-174.07935082 102.32747375 -175.66029036 104.30850081 -177.703125 106.29296875 C-180.33237445 109.01288197 -182.515625 112.29588927 -182.515625 116.16796875 C-183.175625 116.16796875 -183.835625 116.16796875 -184.515625 116.16796875 C-185.175625 117.81796875 -185.835625 119.46796875 -186.515625 121.16796875 C-187.175625 121.16796875 -187.835625 121.16796875 -188.515625 121.16796875 C-188.515625 122.48796875 -188.515625 123.80796875 -188.515625 125.16796875 C-189.505625 125.49796875 -190.495625 125.82796875 -191.515625 126.16796875 C-192.90979056 128.38607594 -192.90979056 128.38607594 -194.078125 131.04296875 C-195.4352363 133.94321283 -196.73295664 136.49396621 -198.515625 139.16796875 C-199.40817188 140.63661407 -200.28202325 142.11672362 -201.140625 143.60546875 C-201.58664063 144.36730469 -202.03265625 145.12914062 -202.4921875 145.9140625 C-203.79125582 148.36242405 -203.79125582 148.36242405 -203.515625 152.16796875 C-204.175625 152.49796875 -204.835625 152.82796875 -205.515625 153.16796875 C-207.11856553 156.38084955 -208.26847384 159.80366065 -209.515625 163.16796875 C-210.12470703 164.79412109 -210.12470703 164.79412109 -210.74609375 166.453125 C-220.82533472 193.96169958 -225.77363085 221.73146902 -225.828125 250.98046875 C-225.83171021 251.74944489 -225.83529541 252.51842102 -225.83898926 253.31069946 C-225.87514683 267.7189135 -225.07754689 282.15313409 -221.515625 296.16796875 C-221.23386924 297.52590686 -220.95922813 298.88533893 -220.69140625 300.24609375 C-218.38343425 311.53833462 -215.01684842 322.31344851 -211.20825195 333.18530273 C-210.62975473 334.84126889 -210.07032158 336.50387901 -209.515625 338.16796875 C-208.855625 338.16796875 -208.195625 338.16796875 -207.515625 338.16796875 C-207.350625 339.32296875 -207.185625 340.47796875 -207.015625 341.66796875 C-205.91779863 346.70505444 -203.80514398 351.08484965 -201.515625 355.66796875 C-201.15919922 356.38662109 -200.80277344 357.10527344 -200.43554688 357.84570312 C-198.68608102 361.65908604 -198.68608102 361.65908604 -195.515625 364.16796875 C-195.2475 365.01359375 -194.979375 365.85921875 -194.703125 366.73046875 C-193.17000799 371.16843903 -190.90567867 376.97294192 -186.515625 379.16796875 C-186.37125 379.82796875 -186.226875 380.48796875 -186.078125 381.16796875 C-185.8925 381.82796875 -185.706875 382.48796875 -185.515625 383.16796875 C-184.525625 383.49796875 -183.535625 383.82796875 -182.515625 384.16796875 C-182.13844311 385.48956729 -181.81351903 386.8262728 -181.515625 388.16796875 C-180.19040207 390.56808282 -180.19040207 390.56808282 -178.578125 392.91796875 C-178.05347656 393.7171875 -177.52882812 394.51640625 -176.98828125 395.33984375 C-176.25931641 396.24476563 -176.25931641 396.24476563 -175.515625 397.16796875 C-174.855625 397.16796875 -174.195625 397.16796875 -173.515625 397.16796875 C-173.226875 397.76609375 -172.938125 398.36421875 -172.640625 398.98046875 C-171.46820474 401.36124667 -171.46820474 401.36124667 -169.515625 404.16796875 C-168.855625 404.16796875 -168.195625 404.16796875 -167.515625 404.16796875 C-167.1134375 405.37453125 -167.1134375 405.37453125 -166.703125 406.60546875 C-166.31125 407.45109375 -165.919375 408.29671875 -165.515625 409.16796875 C-164.525625 409.49796875 -163.535625 409.82796875 -162.515625 410.16796875 C-162.515625 410.82796875 -162.515625 411.48796875 -162.515625 412.16796875 C-161.855625 412.16796875 -161.195625 412.16796875 -160.515625 412.16796875 C-160.515625 412.82796875 -160.515625 413.48796875 -160.515625 414.16796875 C-158.8701872 415.85559726 -157.20273923 417.52200365 -155.515625 419.16796875 C-155.185625 419.82796875 -154.855625 420.48796875 -154.515625 421.16796875 C-153.525625 421.16796875 -152.535625 421.16796875 -151.515625 421.16796875 C-151.515625 421.82796875 -151.515625 422.48796875 -151.515625 423.16796875 C-150.71125 423.41546875 -149.906875 423.66296875 -149.078125 423.91796875 C-148.2325 424.33046875 -147.386875 424.74296875 -146.515625 425.16796875 C-146.29519531 426.1115625 -146.29519531 426.1115625 -146.0703125 427.07421875 C-145.35862449 429.76059038 -144.35137638 430.38671418 -142.078125 431.91796875 C-141.46066406 432.3459375 -140.84320313 432.77390625 -140.20703125 433.21484375 C-138.54880347 434.33161201 -138.54880347 434.33161201 -136.515625 434.16796875 C-136.020625 435.65296875 -136.020625 435.65296875 -135.515625 437.16796875 C-134.525625 437.16796875 -133.535625 437.16796875 -132.515625 437.16796875 C-132.515625 437.82796875 -132.515625 438.48796875 -132.515625 439.16796875 C-131.525625 439.16796875 -130.535625 439.16796875 -129.515625 439.16796875 C-129.020625 440.65296875 -129.020625 440.65296875 -128.515625 442.16796875 C-126.08261258 444.10103245 -126.08261258 444.10103245 -123.078125 445.98046875 C-121.99917969 446.67785156 -120.92023438 447.37523437 -119.80859375 448.09375 C-112.63020691 453.47667397 -112.63020691 453.47667397 -104.515625 456.16796875 C-104.185625 456.82796875 -103.855625 457.48796875 -103.515625 458.16796875 C-99.27150589 460.57781137 -99.27150589 460.57781137 -94.515625 461.16796875 C-94.515625 461.82796875 -94.515625 462.48796875 -94.515625 463.16796875 C-93.360625 463.58046875 -92.205625 463.99296875 -91.015625 464.41796875 C-87.292132 465.79777378 -83.84924212 467.48186178 -80.375 469.3984375 C-78.23501712 470.42290805 -78.23501712 470.42290805 -74.515625 470.16796875 C-74.185625 470.82796875 -73.855625 471.48796875 -73.515625 472.16796875 C-71.71854838 472.97287933 -71.71854838 472.97287933 -69.53515625 473.6015625 C-68.71998535 473.8579248 -67.90481445 474.11428711 -67.06494141 474.37841797 C-66.22366699 474.63896973 -65.38239258 474.89952148 -64.515625 475.16796875 C-62.97703049 475.67717411 -61.43925219 476.18885305 -59.90234375 476.703125 C-51.94362215 479.30702289 -44.1945395 481.72891976 -35.86328125 482.84375 C-33.515625 483.16796875 -33.515625 483.16796875 -31.66040039 483.64111328 C-17.0054601 487.24104056 -1.52752665 487.45842936 13.484375 487.41796875 C14.58063202 487.41653366 14.58063202 487.41653366 15.69903564 487.41506958 C23.3403952 487.39175638 30.91340884 487.28499654 38.484375 486.16796875 C39.20093262 486.0695166 39.91749023 485.97106445 40.65576172 485.86962891 C55.43983354 483.78258003 70.4290485 481.33872911 84.484375 476.16796875 C85.92123744 475.7076406 87.35876664 475.24938966 88.796875 474.79296875 C96.0647045 472.36612358 103.16436091 469.41052718 109.984375 465.91796875 C112.66982906 464.57524172 114.63059772 463.7937971 117.484375 463.16796875 C117.484375 462.50796875 117.484375 461.84796875 117.484375 461.16796875 C118.20625 461.06484375 118.928125 460.96171875 119.671875 460.85546875 C122.82002402 460.08592121 124.7482823 458.90911865 127.484375 457.16796875 C129.00034471 456.30519963 130.52162366 455.45172113 132.046875 454.60546875 C132.79066406 454.19167969 133.53445313 453.77789062 134.30078125 453.3515625 C135.72863053 452.57761199 137.17545433 451.83745255 138.640625 451.13671875 C140.64318625 450.20101298 140.64318625 450.20101298 142.421875 448.23046875 C145.62644942 445.02589433 149.43068421 443.1197458 153.484375 441.16796875 C153.484375 440.50796875 153.484375 439.84796875 153.484375 439.16796875 C154.144375 439.16796875 154.804375 439.16796875 155.484375 439.16796875 C155.484375 438.50796875 155.484375 437.84796875 155.484375 437.16796875 C156.5053125 436.85859375 156.5053125 436.85859375 157.546875 436.54296875 C162.25244878 434.34035974 165.83402209 430.81832166 169.484375 427.16796875 C170.185625 426.67296875 170.886875 426.17796875 171.609375 425.66796875 C172.228125 425.17296875 172.846875 424.67796875 173.484375 424.16796875 C173.484375 423.50796875 173.484375 422.84796875 173.484375 422.16796875 C174.061875 421.94109375 174.639375 421.71421875 175.234375 421.48046875 C178.04865113 419.83880768 179.51175233 417.73237822 181.484375 415.16796875 C182.144375 414.83796875 182.804375 414.50796875 183.484375 414.16796875 C183.484375 413.50796875 183.484375 412.84796875 183.484375 412.16796875 C184.474375 411.83796875 185.464375 411.50796875 186.484375 411.16796875 C188.1931396 409.79282334 188.1931396 409.79282334 189.484375 408.16796875 C189.484375 407.50796875 189.484375 406.84796875 189.484375 406.16796875 C190.144375 405.83796875 190.804375 405.50796875 191.484375 405.16796875 C195.28954169 401.7079038 195.28954169 401.7079038 197.484375 397.16796875 C198.144375 396.50796875 198.804375 395.84796875 199.484375 395.16796875 C200.50027039 393.86773308 201.49868895 392.55375227 202.484375 391.23046875 C203 390.54082031 203.515625 389.85117187 204.046875 389.140625 C206.81631836 385.54456884 206.81631836 385.54456884 207.484375 381.16796875 C208.144375 381.16796875 208.804375 381.16796875 209.484375 381.16796875 C218.38347683 369.55658423 218.38347683 369.55658423 222.484375 356.16796875 C223.144375 355.83796875 223.804375 355.50796875 224.484375 355.16796875 C225.54337485 353.1929861 225.54337485 353.1929861 226.484375 350.85546875 C228.41300307 346.29757819 228.41300307 346.29757819 229.609375 344.125 C230.75648585 341.91665271 230.75648585 341.91665271 230.484375 338.16796875 C231.144375 338.16796875 231.804375 338.16796875 232.484375 338.16796875 C232.83371094 337.03617187 233.18304687 335.904375 233.54296875 334.73828125 C234.00251395 333.25648244 234.46215431 331.77471313 234.921875 330.29296875 C235.15197266 329.54660156 235.38207031 328.80023438 235.61914062 328.03125 C237.37109375 322.39453125 237.37109375 322.39453125 238.484375 320.16796875 C238.154375 319.50796875 237.824375 318.84796875 237.484375 318.16796875 C238.144375 317.83796875 238.804375 317.50796875 239.484375 317.16796875 C242.59806521 308.07015517 244.18268845 298.66676251 245.484375 289.16796875 C245.74541016 287.63269531 245.74541016 287.63269531 246.01171875 286.06640625 C248.31427673 272.51997024 248.57020888 258.99924588 248.609375 245.29296875 C248.61404785 244.1642334 248.6187207 243.03549805 248.62353516 241.87255859 C248.59425781 226.5514994 247.44172596 209.89698485 242.51171875 195.28515625 C241.46827994 192.1191328 240.73943596 188.98980933 240.046875 185.73046875 C238.95119324 180.86630578 237.63313907 176.65234594 235.484375 172.16796875 C233.86693784 168.28209274 232.48609889 164.33218394 231.109375 160.35546875 C228.01194413 151.68446316 223.98144021 144.25610436 219.2890625 136.3515625 C216.91342159 132.1607674 214.86250714 127.84083358 212.84375 123.46875 C211.63881389 120.8550509 211.63881389 120.8550509 208.484375 120.16796875 C208.10680692 118.84648048 207.7825174 117.50960954 207.484375 116.16796875 C206.13036855 113.43815043 206.13036855 113.43815043 204.484375 111.16796875 C203.824375 111.16796875 203.164375 111.16796875 202.484375 111.16796875 C202.484375 110.50796875 202.484375 109.84796875 202.484375 109.16796875 C201.824375 109.16796875 201.164375 109.16796875 200.484375 109.16796875 C200.38125 108.56984375 200.278125 107.97171875 200.171875 107.35546875 C199.38525644 104.85259151 198.34891669 103.9548212 196.484375 102.16796875 C196.154375 101.17796875 195.824375 100.18796875 195.484375 99.16796875 C194.17550042 97.81061733 192.83584638 96.48291387 191.484375 95.16796875 C190.49761743 94.00771534 189.51898892 92.84051853 188.546875 91.66796875 C186.10304888 88.77135251 183.49073417 86.48716011 180.484375 84.16796875 C180.154375 83.50796875 179.824375 82.84796875 179.484375 82.16796875 C178.824375 82.16796875 178.164375 82.16796875 177.484375 82.16796875 C177.1440625 81.23984375 177.1440625 81.23984375 176.796875 80.29296875 C175.63125517 77.92925293 175.63125517 77.92925293 172.921875 77.16796875 C171.7153125 76.67296875 171.7153125 76.67296875 170.484375 76.16796875 C170.14095051 74.83719886 169.80817626 73.50364896 169.484375 72.16796875 C166.28361522 69.80716678 166.28361522 69.80716678 162.484375 69.16796875 C162.484375 68.17796875 162.484375 67.18796875 162.484375 66.16796875 C161.494375 66.16796875 160.504375 66.16796875 159.484375 66.16796875 C159.154375 65.17796875 158.824375 64.18796875 158.484375 63.16796875 C157.494375 63.16796875 156.504375 63.16796875 155.484375 63.16796875 C155.154375 62.17796875 154.824375 61.18796875 154.484375 60.16796875 C153.494375 60.16796875 152.504375 60.16796875 151.484375 60.16796875 C151.484375 59.50796875 151.484375 58.84796875 151.484375 58.16796875 C150.494375 57.83796875 149.504375 57.50796875 148.484375 57.16796875 C147.80375 56.45640625 147.80375 56.45640625 147.109375 55.73046875 C145.09861286 53.79704361 143.09385295 53.08481235 140.484375 52.16796875 C140.484375 51.50796875 140.484375 50.84796875 140.484375 50.16796875 C139.05143002 49.32682704 137.61283095 48.49531188 136.171875 47.66796875 C135.37136719 47.20390625 134.57085937 46.73984375 133.74609375 46.26171875 C131.4529632 44.95028989 131.4529632 44.95028989 128.484375 45.16796875 C128.484375 44.50796875 128.484375 43.84796875 128.484375 43.16796875 C127.535625 42.79671875 126.586875 42.42546875 125.609375 42.04296875 C122.43741946 40.69632364 119.59396753 39.05389142 116.671875 37.23046875 C111.7765409 34.24173846 106.86738881 32.1150163 101.484375 30.16796875 C99.85822266 29.56662109 99.85822266 29.56662109 98.19921875 28.953125 C77.70138928 21.48492357 57.25236037 15.87736994 35.44116211 14.38574219 C33.484375 14.16796875 33.484375 14.16796875 31.74755859 13.65380859 C28.27124022 12.90754392 24.78511355 13.02581289 21.24609375 13.03515625 C20.44710159 13.03419952 19.64810944 13.0332428 18.8249054 13.03225708 C17.13628053 13.03157757 15.44765303 13.03341591 13.7590332 13.03759766 C11.19150828 13.04292799 8.62415997 13.03765586 6.05664062 13.03125 C4.41145795 13.03191123 2.76627539 13.03319333 1.12109375 13.03515625 C0.36044113 13.03313202 -0.40021149 13.03110779 -1.18391418 13.02902222 C-5.71656469 13.04866622 -10.0289426 13.43993037 -14.515625 14.16796875 Z " fill="#FFFFFF" transform="translate(348.515625,19.83203125)"/>
<path d="M0 0 C43.43323654 -0.08060607 43.43323654 -0.08060607 61.60742188 -0.09765625 C74.1656253 -0.10953224 86.72380193 -0.12350779 99.28198242 -0.15087891 C108.42726292 -0.17080196 117.57252173 -0.18371387 126.71782333 -0.18817699 C131.56099592 -0.1907862 136.40410643 -0.19692636 141.24725914 -0.21146011 C145.80506605 -0.22502687 150.36278524 -0.22922446 154.92061043 -0.22621536 C156.59396211 -0.22676593 158.26731671 -0.23074877 159.94065094 -0.23841095 C162.22488006 -0.24835804 164.50877777 -0.24596981 166.79301453 -0.24050903 C168.0715414 -0.24235262 169.35006826 -0.24419621 170.66733837 -0.24609566 C173.92579625 -0.00547947 176.11510077 0.50020427 179 2 C182.03601919 5.76415246 182.37172542 8.73145247 182.35644531 13.48681641 C182.36094696 15.42374863 182.36094696 15.42374863 182.36553955 17.39981079 C182.35353489 18.80039877 182.34105195 20.20098273 182.328125 21.6015625 C182.32506499 23.04454349 182.32319071 24.48752743 182.32244873 25.93051147 C182.31785536 28.94825624 182.30346498 31.96573271 182.28125 34.98339844 C182.25291765 38.85157912 182.24203219 42.71954927 182.2375679 46.58782387 C182.23341225 49.56464745 182.22359436 52.54142854 182.21169281 55.51823044 C182.20599691 56.9447839 182.20123597 58.37134141 182.19742584 59.79790115 C182.19055305 61.78928321 182.17602161 63.7806344 182.16113281 65.77197266 C182.15089081 67.47143539 182.15089081 67.47143539 182.14044189 69.20523071 C182 72 182 72 181 75 C178 77 178 77 175 77 C175 77.66 175 78.32 175 79 C167.74 79 160.48 79 153 79 C153 130.81 153 182.62 153 236 C154.98 236 156.96 236 159 236 C158.99815641 235.22970553 158.99631283 234.45941107 158.99441338 233.66577435 C158.95027867 214.9381005 158.91716505 196.21043701 158.89637566 177.48272228 C158.8860553 168.42620669 158.8719805 159.36972576 158.84912109 150.31323242 C158.82921042 142.4212243 158.81628909 134.5292413 158.81182301 126.63720876 C158.80921169 122.4569671 158.80305824 118.27679728 158.78853989 114.0965786 C158.77499263 110.16420542 158.77077155 106.23193386 158.77378464 102.29953957 C158.77323319 100.85433017 158.76923873 99.40911748 158.76158905 97.96392822 C158.75167306 95.99442486 158.75521465 94.02486731 158.75949097 92.05534363 C158.75764738 90.95195743 158.75580379 89.84857122 158.75390434 88.71174908 C159 86 159 86 161 83 C169.54400375 80.15199875 178.99382928 82 188 82 C188 59.23 188 36.46 188 13 C190.64 13 193.28 13 196 13 C196.02318551 22.0405087 196.04094676 31.08100715 196.05181217 40.12153912 C196.0570274 44.31956216 196.06410038 48.51756484 196.07543945 52.71557617 C196.08631663 56.76801058 196.09228709 60.82042542 196.09487724 64.87287331 C196.09672278 66.41779704 196.10032663 67.96271973 196.10573006 69.50763512 C196.11300459 71.67397743 196.11398824 73.8402392 196.11352539 76.0065918 C196.115746 77.23903122 196.11796661 78.47147064 196.12025452 79.74125671 C196.01376122 82.62708854 195.66939628 85.19843267 195 88 C189 90 189 90 167 90 C167 138.18 167 186.36 167 236 C185.15 236 203.3 236 222 236 C221.96043692 222.31284646 221.96043692 222.31284646 221.90991211 208.62573242 C221.90699167 206.91064516 221.90444341 205.19555721 221.90234375 203.48046875 C221.89722778 202.58896118 221.89211182 201.69745361 221.88684082 200.77893066 C221.88665955 199.50040222 221.88665955 199.50040222 221.88647461 198.19604492 C221.884254 197.45658127 221.88203339 196.71711761 221.87974548 195.95524597 C222 194 222 194 223 191 C229.64231817 186.82363708 237.08988547 187.56368651 244.69140625 187.6015625 C246.12434538 187.59953857 247.55728349 187.59662448 248.99021912 187.59286499 C251.98340732 187.58845801 254.97632574 187.59482071 257.96948242 187.60888672 C261.79489092 187.62599353 265.61966856 187.61611818 269.44505405 187.59816933 C272.40057584 187.58730043 275.35594937 187.59079171 278.31147575 187.5985527 C279.72159844 187.60054534 281.13173486 187.59812851 282.54184151 187.59111404 C284.5156031 187.58344741 286.48941229 187.59721542 288.46313477 187.61181641 C290.14355614 187.61539658 290.14355614 187.61539658 291.85792542 187.61904907 C295.43422474 188.05264621 297.88791058 189.22777307 301 191 C301 193.64 301 196.28 301 199 C302.216875 198.938125 303.43375 198.87625 304.6875 198.8125 C308.58074725 198.8125 310.91402048 199.47510766 314 202 C314.95622607 204.86867821 315.12976881 206.66981104 315.14044189 209.64826965 C315.14615204 210.60293625 315.15186218 211.55760284 315.15774536 212.54119873 C315.15886322 213.58697083 315.15998108 214.63274292 315.16113281 215.71020508 C315.16609772 216.81291245 315.17106262 217.91561981 315.17617798 219.05174255 C315.19080921 222.70767842 315.19760321 226.36357089 315.203125 230.01953125 C315.20887563 232.55677797 315.21463338 235.09402467 315.22039795 237.63127136 C315.22956646 242.27438367 315.23586568 246.91748293 315.2388947 251.56060201 C315.24337354 258.38809027 315.26091456 265.21537815 315.2898953 272.04280549 C315.3141439 277.96147076 315.32184036 283.88008627 315.32357025 289.79880333 C315.32659863 292.31420673 315.33463333 294.82960924 315.34775543 297.34498024 C315.36480294 300.86401182 315.36293854 304.38255525 315.35644531 307.90161133 C315.3656601 308.94131073 315.37487488 309.98101013 315.3843689 311.05221558 C315.35364263 316.36599798 315.25264989 320.54034662 312 325 C308.97599883 326.08166786 306.10644849 326.12440649 302.91630173 326.12304783 C301.88421923 326.12503888 300.85213674 326.12702993 299.78877902 326.12908131 C298.65649159 326.12616847 297.52420415 326.12325563 296.35760498 326.12025452 C295.15362289 326.12110894 293.94964079 326.12196337 292.70917439 326.12284368 C289.3661273 326.12420745 286.02313858 326.12107666 282.68009853 326.11606562 C279.07549986 326.11175156 275.47090302 326.11320823 271.86630249 326.1139679 C265.62069012 326.11449252 259.3750882 326.1113521 253.12947845 326.10573006 C244.09934943 326.09760679 235.06922545 326.09499899 226.03909317 326.09374207 C211.38868946 326.09155285 196.73829131 326.08489629 182.08789062 326.07543945 C167.85546903 326.06626197 153.62304895 326.05918278 139.390625 326.05493164 C138.51349919 326.05466892 137.63637339 326.05440619 136.73266801 326.05413551 C132.33243361 326.05283048 127.9321992 326.05156677 123.53196478 326.05032361 C87.02130592 326.03995505 50.51065339 326.02234027 14 326 C14 323.36 14 320.72 14 318 C110.69 318 207.38 318 307 318 C307 281.37 307 244.74 307 207 C305.02 207 303.04 207 301 207 C301 240 301 273 301 307 C300.34 307 299.68 307 299 307 C298.67 308.65 298.34 310.3 298 312 C296.68 312.33 295.36 312.66 294 313 C294 313.66 294 314.32 294 315 C196.98 315 99.96 315 0 315 C0 288.93 0 262.86 0 236 C9.24 236 18.48 236 28 236 C28 184.19 28 132.38 28 79 C18.76 79 9.52 79 0 79 C0 52.93 0 26.86 0 0 Z M9 8 C9 28.46 9 48.92 9 70 C16.26 70.33 23.52 70.66 31 71 C32.32 71.33 33.64 71.66 35 72 C35 127.77 35 183.54 35 241 C33.02 241.99 33.02 241.99 31 243 C31 243.66 31 244.32 31 245 C23.74 245 16.48 245 9 245 C9 265.13 9 285.26 9 306 C102.72 306 196.44 306 293 306 C293 269.7 293 233.4 293 196 C272.54 196 252.08 196 231 196 C230.71084723 210.01613354 230.71084723 210.01613354 230.43188477 224.0324707 C230.39376162 225.78858228 230.35529247 227.5446864 230.31640625 229.30078125 C230.29993042 230.21388062 230.28345459 231.12697998 230.26647949 232.06774902 C230.24629761 232.94040405 230.22611572 233.81305908 230.20532227 234.7121582 C230.18977798 235.46938675 230.1742337 236.2266153 230.15821838 237.00679016 C230 239 230 239 229 242 C225.40736941 243.19754353 222.14543393 243.13198753 218.4074707 243.11352539 C217.25101547 243.11374443 217.25101547 243.11374443 216.07119751 243.1139679 C213.52269681 243.11327119 210.97426918 243.1054901 208.42578125 243.09765625 C206.65886983 243.09579121 204.8919579 243.09436771 203.12504578 243.09336853 C198.47421847 243.08955012 193.82342239 243.07972558 189.17260742 243.06866455 C184.42692487 243.05843591 179.68123727 243.05386779 174.93554688 243.04882812 C165.6236842 243.03810273 156.3118447 243.02103439 147 243 C145.88393737 239.41071372 145.87419251 236.06487648 145.87301636 232.31982422 C145.87145637 231.6495262 145.86989638 230.97922817 145.86828911 230.28861809 C145.86430245 228.04395216 145.86745972 225.79935393 145.87060547 223.5546875 C145.86925039 221.94484416 145.86746986 220.33500113 145.86529541 218.72515869 C145.86073373 214.35335786 145.86250546 209.98158061 145.8656745 205.60977936 C145.86820461 201.03656449 145.86585874 196.46335166 145.86428833 191.89013672 C145.86246854 184.20995725 145.86486795 176.52978739 145.86962891 168.84960938 C145.87507116 159.96776751 145.87330837 151.0859486 145.8678025 142.20410728 C145.86326595 134.58109528 145.86262349 126.9580902 145.86524117 119.33507729 C145.86680095 114.78097787 145.86700586 110.22688925 145.86370468 105.67279053 C145.86081812 101.39154739 145.86281617 97.11033387 145.86859894 92.82909393 C145.86992231 91.25691528 145.86953957 89.68473413 145.86733627 88.11255646 C145.8646082 85.96839579 145.86802625 83.82433036 145.87301636 81.68017578 C145.8735819 79.87941086 145.8735819 79.87941086 145.87415886 78.04226685 C146 75 146 75 147 71 C155.91 70.67 164.82 70.34 174 70 C174 49.54 174 29.08 174 8 C119.55 8 65.1 8 9 8 Z " fill="#E6E6E6" transform="translate(208,102)"/>
<path d="M0 0 C13.86 0 27.72 0 42 0 C43.299375 3.238125 44.59875 6.47625 45.9375 9.8125 C46.55032837 11.33774292 46.55032837 11.33774292 47.17553711 12.89379883 C47.4978833 13.69841553 47.82022949 14.50303223 48.15234375 15.33203125 C48.48226318 16.15421143 48.81218262 16.9763916 49.15209961 17.82348633 C49.81716342 19.53066857 50.42062266 21.26186797 51 23 C51.2673999 22.3387915 51.5347998 21.67758301 51.81030273 20.99633789 C53.0167498 18.01732351 54.22707088 15.03989848 55.4375 12.0625 C55.85837891 11.02158203 56.27925781 9.98066406 56.71289062 8.90820312 C57.11572266 7.91884766 57.51855469 6.92949219 57.93359375 5.91015625 C58.30540771 4.99371338 58.67722168 4.07727051 59.06030273 3.13305664 C60 1 60 1 61 0 C64.10251201 -0.08874135 67.1826812 -0.11518455 70.28515625 -0.09765625 C71.21597519 -0.0962413 72.14679413 -0.09482635 73.1058197 -0.09336853 C76.09141191 -0.08775172 79.07693029 -0.0751964 82.0625 -0.0625 C84.08137913 -0.05748716 86.10025943 -0.05292388 88.11914062 -0.04882812 C93.07945572 -0.03777683 98.03971532 -0.02050095 103 0 C103 5.28 103 10.56 103 16 C101.02 16 99.04 16 97 16 C97 27.55 97 39.1 97 51 C98.98 51 100.96 51 103 51 C103 56.61 103 62.22 103 68 C90.79 68 78.58 68 66 68 C66 62.39 66 56.78 66 51 C67.98 51 69.96 51 72 51 C71.67 40.77 71.34 30.54 71 20 C65.06 35.84 59.12 51.68 53 68 C49.04 68 45.08 68 41 68 C36.82959687 58.1669591 32.98150694 48.23279023 29.1875 38.25 C28.58415399 36.66660203 27.98063946 35.08326825 27.37695312 33.5 C25.91571855 29.66751646 24.45793379 25.83374683 23 22 C22.67 31.57 22.34 41.14 22 51 C23.65 51 25.3 51 27 51 C27 56.61 27 62.22 27 68 C18.09 68 9.18 68 0 68 C0 62.39 0 56.78 0 51 C1.65 51 3.3 51 5 51 C5 39.45 5 27.9 5 16 C3.35 16 1.7 16 0 16 C0 10.72 0 5.44 0 0 Z " fill="#FFFFFF" transform="translate(235,578)"/>
<path d="M0 0 C7.27641561 -0.0680626 14.55265418 -0.12298015 21.82932186 -0.15543652 C25.20900844 -0.17102226 28.58846394 -0.19212856 31.96801758 -0.22631836 C35.86285403 -0.2628795 39.75736645 -0.27976767 43.65234375 -0.29296875 C45.45287453 -0.31619453 45.45287453 -0.31619453 47.28977966 -0.33988953 C57.39136757 -0.34189649 64.95605736 1.09259736 72.40234375 8.18359375 C76.1205266 12.41086765 76.44852545 17.26592389 76.3203125 22.6875 C75.63123267 27.66232021 73.48409157 31.68080749 69.75 35 C68.88375 35.495 68.88375 35.495 68 36 C69.19509575 39.36799711 70.69779295 42.56628515 72.3125 45.75 C72.70050781 46.52859375 73.08851563 47.3071875 73.48828125 48.109375 C75.13510726 50.58462182 75.13510726 50.58462182 80 51 C80 56.61 80 62.22 80 68 C71.42 68 62.84 68 54 68 C52.60587891 65.09380859 52.60587891 65.09380859 51.18359375 62.12890625 C50.26297373 60.25586445 49.33350838 58.38747034 48.40307617 56.51928711 C47.76250655 55.22114159 47.13119611 53.91838345 46.50952148 52.61108398 C45.61252277 50.72903322 44.68318803 48.86625271 43.74609375 47.00390625 C43.19622803 45.87799072 42.6463623 44.7520752 42.07983398 43.59204102 C40.13922367 40.62783317 40.13922367 40.62783317 36.26586914 40.12475586 C35.18813232 40.08358643 34.11039551 40.04241699 33 40 C33 43.63 33 47.26 33 51 C34.65 51 36.3 51 38 51 C38 56.61 38 62.22 38 68 C25.46 68 12.92 68 0 68 C0 62.39 0 56.78 0 51 C1.65 51 3.3 51 5 51 C5 39.45 5 27.9 5 16 C3.35 16 1.7 16 0 16 C0 10.72 0 5.44 0 0 Z " fill="#FFFFFF" transform="translate(585,578)"/>
<path d="M0 0 C8.14080162 5.75346977 15.21853155 13.87974306 17 24 C17.92371821 35.88719338 16.62527839 45.11439905 8.8125 54.375 C2.10643333 61.3237204 -6.01628794 65.89321988 -15.79296875 66.3359375 C-29.32165639 66.5633104 -40.73252967 65.77210992 -51 56 C-57.89673015 48.44494561 -60.98487965 40.22135376 -61 30 C-60.23095201 20.10025496 -56.51139897 12.4265145 -50 5 C-47.44921875 3.05078125 -47.44921875 3.05078125 -44.6875 1.3125 C-43.78386719 0.73113281 -42.88023437 0.14976562 -41.94921875 -0.44921875 C-30.58111081 -6.4268861 -11.10614707 -6.82603724 0 0 Z " fill="#FFFFFF" transform="translate(406,581)"/>
<path d="M0 0 C8.14080162 5.75346977 15.21853155 13.87974306 17 24 C17.92371821 35.88719338 16.62527839 45.11439905 8.8125 54.375 C2.10643333 61.3237204 -6.01628794 65.89321988 -15.79296875 66.3359375 C-29.32165639 66.5633104 -40.73252967 65.77210992 -51 56 C-57.89673015 48.44494561 -60.98487965 40.22135376 -61 30 C-60.23095201 20.10025496 -56.51139897 12.4265145 -50 5 C-47.44921875 3.05078125 -47.44921875 3.05078125 -44.6875 1.3125 C-43.78386719 0.73113281 -42.88023437 0.14976562 -41.94921875 -0.44921875 C-30.58111081 -6.4268861 -11.10614707 -6.82603724 0 0 Z " fill="#FFFFFF" transform="translate(209,581)"/>
<path d="M0 0 C1.38481567 0.01244751 1.38481567 0.01244751 2.79760742 0.02514648 C12.8689356 0.27468737 20.46102969 2.42425292 27.84375 9.51953125 C36.43042417 18.76527033 39.4255315 26.95093051 38.96875 39.5234375 C38.06798602 49.7798637 33.19483447 56.42464897 25.7109375 63.16015625 C18.02185882 69.3941304 9.99578701 70.98797143 0.25 70.875 C-0.67393555 70.86670166 -1.59787109 70.85840332 -2.54980469 70.84985352 C-13.74150711 70.57272377 -22.3239945 67.41018832 -30.375 59.4375 C-38.14360179 50.0184871 -39.32626647 40.40863259 -38.375 28.4375 C-36.44546929 18.2718516 -30.23410067 11.38551929 -22.375 5 C-15.02879303 1.17385054 -8.24411897 -0.09557308 0 0 Z " fill="#FFFFFF" transform="translate(537.375,576.5625)"/>
<path d="M0 0 C22.44 0 44.88 0 68 0 C68 9.57 68 19.14 68 29 C63.71 29 59.42 29 55 29 C55 24.71 55 20.42 55 16 C52.69 16 50.38 16 48 16 C48 27.55 48 39.1 48 51 C49.98 51 51.96 51 54 51 C54 56.61 54 62.22 54 68 C41.13 68 28.26 68 15 68 C15 62.39 15 56.78 15 51 C16.98 51 18.96 51 21 51 C21 39.45 21 27.9 21 16 C18.69 16 16.38 16 14 16 C14 20.29 14 24.58 14 29 C9.38 29 4.76 29 0 29 C0 19.43 0 9.86 0 0 Z " fill="#FFFFFF" transform="translate(426,578)"/>
<path d="M0 0 C5.37514905 -0.04935509 10.75016685 -0.08569802 16.12548828 -0.10986328 C17.95493873 -0.11993484 19.78437303 -0.13359276 21.61376953 -0.15087891 C24.23994934 -0.17507677 26.86591675 -0.18647132 29.4921875 -0.1953125 C30.72350906 -0.21079636 30.72350906 -0.21079636 31.97970581 -0.22659302 C33.98789142 -0.22699184 35.99555382 -0.1224954 38 0 C40 2 40 2 40.265625 4.75 C40.26046875 5.8225 40.2553125 6.895 40.25 8 C40.25773437 9.60875 40.25773437 9.60875 40.265625 11.25 C40 14 40 14 38 16 C36.35 16 34.7 16 33 16 C33 27.88 33 39.76 33 52 C38.28 52 43.56 52 49 52 C48.95875 50.55625 48.9175 49.1125 48.875 47.625 C48.8046875 45.1640625 48.8046875 45.1640625 49 43 C51 41 51 41 53.96875 40.734375 C55.1340625 40.73953125 56.299375 40.7446875 57.5 40.75 C58.6653125 40.74484375 59.830625 40.7396875 61.03125 40.734375 C64 41 64 41 66 43 C66 51.25 66 59.5 66 68 C44.22 68 22.44 68 0 68 C0 62.39 0 56.78 0 51 C1.98 51 3.96 51 6 51 C6 39.45 6 27.9 6 16 C4.02 16 2.04 16 0 16 C0 10.72 0 5.44 0 0 Z " fill="#FFFFFF" transform="translate(77,578)"/>
<path d="M0 0 C3.73913688 3.34554352 4.38894712 6.1581334 5 11 C5.85738425 28.18756337 5.85738425 28.18756337 1.8125 35 C-1.17291014 36.64712284 -3.67723268 36.35601078 -7 36 C-9.8208423 34.44367321 -10.09406156 32.73761775 -11.1875 29.6875 C-13.14641333 20.78185199 -13.61229328 9.08386237 -8.8125 1 C-5.74004096 -0.69514982 -3.41821352 -0.47974927 0 0 Z " fill="#000000" transform="translate(541,594)"/>
<path d="M0 0 C3.74540057 2.78458522 4.01667918 6.21895133 4.71484375 10.61328125 C5.04832638 14.57395848 5.01796952 18.40971098 4.8125 22.375 C4.7825293 23.05264404 4.75255859 23.73028809 4.72167969 24.4284668 C4.39245337 29.072745 3.35046504 32.64953496 0 36 C-3.3125 36.375 -3.3125 36.375 -7 36 C-10.48908001 32.69455578 -11.77786976 29.72883635 -12.16113281 25.02050781 C-12.20697614 22.76352333 -12.23524568 20.50741037 -12.25 18.25 C-12.270625 17.4765625 -12.29125 16.703125 -12.3125 15.90625 C-12.35023482 10.28376244 -11.36457983 6.11943011 -9 1 C-5.95016004 -0.52491998 -3.3576631 -0.23562548 0 0 Z " fill="#000000" transform="translate(388,594)"/>
<path d="M0 0 C3.74540057 2.78458522 4.01667918 6.21895133 4.71484375 10.61328125 C5.04832638 14.57395848 5.01796952 18.40971098 4.8125 22.375 C4.7825293 23.05264404 4.75255859 23.73028809 4.72167969 24.4284668 C4.39245337 29.072745 3.35046504 32.64953496 0 36 C-3.3125 36.375 -3.3125 36.375 -7 36 C-10.48908001 32.69455578 -11.77786976 29.72883635 -12.16113281 25.02050781 C-12.20697614 22.76352333 -12.23524568 20.50741037 -12.25 18.25 C-12.270625 17.4765625 -12.29125 16.703125 -12.3125 15.90625 C-12.35023482 10.28376244 -11.36457983 6.11943011 -9 1 C-5.95016004 -0.52491998 -3.3576631 -0.23562548 0 0 Z " fill="#000000" transform="translate(191,594)"/>
<path d="M0 0 C9.11458333 -0.60763889 9.11458333 -0.60763889 13.1875 2.1875 C15 5 15 5 15 7.6875 C14 10 14 10 11 12 C7.34087399 12.56131311 3.69742878 12.73900503 0 13 C0 8.71 0 4.42 0 0 Z " fill="#000000" transform="translate(618,593)"/>
</svg>
